<?xml version="1.0" encoding="UTF-8" standalone="no"?>
<!-- Created with Inkscape (http://www.inkscape.org/) -->

<svg
   xmlns:dc="http://purl.org/dc/elements/1.1/"
   xmlns:cc="http://creativecommons.org/ns#"
   xmlns:rdf="http://www.w3.org/1999/02/22-rdf-syntax-ns#"
   xmlns:svg="http://www.w3.org/2000/svg"
   xmlns="http://www.w3.org/2000/svg"
   xmlns:sodipodi="http://sodipodi.sourceforge.net/DTD/sodipodi-0.dtd"
   xmlns:inkscape="http://www.inkscape.org/namespaces/inkscape"
   width="54mm"
   height="48mm"
   viewBox="0 0 54 48"
   version="1.1"
   id="svg10986"
   inkscape:version="0.92.5 (2060ec1f9f, 2020-04-08)"
   sodipodi:docname="figure-4.svg"
   inkscape:export-filename="/home/cwseitz/git/cwseitz.github.io/docs/rsnn/rsnn/rsnn/figure-10.png"
   inkscape:export-xdpi="1000"
   inkscape:export-ydpi="1000">
  <defs
     id="defs10980">
    <marker
       inkscape:stockid="Arrow2Mend"
       orient="auto"
       refY="0"
       refX="0"
       id="marker11576"
       style="overflow:visible"
       inkscape:isstock="true">
      <path
         id="path11574"
         style="fill:#000000;fill-opacity:1;fill-rule:evenodd;stroke:#000000;stroke-width:0.625;stroke-linejoin:round;stroke-opacity:1"
         d="M 8.7185878,4.0337352 -2.2072895,0.01601326 8.7185884,-4.0017078 c -1.7454984,2.3720609 -1.7354408,5.6174519 -6e-7,8.035443 z"
         transform="scale(-0.6)"
         inkscape:connector-curvature="0" />
    </marker>
    <marker
       inkscape:stockid="Arrow2Mend"
       orient="auto"
       refY="0"
       refX="0"
       id="Arrow2Mend"
       style="overflow:visible"
       inkscape:isstock="true">
      <path
         id="path1279"
         style="fill:#000000;fill-opacity:1;fill-rule:evenodd;stroke:#000000;stroke-width:0.625;stroke-linejoin:round;stroke-opacity:1"
         d="M 8.7185878,4.0337352 -2.2072895,0.01601326 8.7185884,-4.0017078 c -1.7454984,2.3720609 -1.7354408,5.6174519 -6e-7,8.035443 z"
         transform="scale(-0.6)"
         inkscape:connector-curvature="0" />
    </marker>
  </defs>
  <sodipodi:namedview
     id="base"
     pagecolor="#ffffff"
     bordercolor="#666666"
     borderopacity="1.0"
     inkscape:pageopacity="0.0"
     inkscape:pageshadow="2"
     inkscape:zoom="2.8"
     inkscape:cx="-2.0231375"
     inkscape:cy="37.52923"
     inkscape:document-units="mm"
     inkscape:current-layer="layer1"
     showgrid="false"
     inkscape:window-width="2560"
     inkscape:window-height="1318"
     inkscape:window-x="0"
     inkscape:window-y="27"
     inkscape:window-maximized="1" />
  <metadata
     id="metadata10983">
    <rdf:RDF>
      <cc:Work
         rdf:about="">
        <dc:format>image/svg+xml</dc:format>
        <dc:type
           rdf:resource="http://purl.org/dc/dcmitype/StillImage" />
        <dc:title></dc:title>
      </cc:Work>
    </rdf:RDF>
  </metadata>
  <g
     inkscape:label="Layer 1"
     inkscape:groupmode="layer"
     id="layer1"
     transform="translate(0,-249)">
    <path
       style="fill:none;stroke:#000000;stroke-width:0.26499999;stroke-linecap:butt;stroke-linejoin:miter;stroke-miterlimit:4;stroke-dasharray:none;stroke-opacity:1;marker-end:url(#Arrow2Mend)"
       d="M 9.3549113,283.86533 H 49.609373"
       id="path11550"
       inkscape:connector-curvature="0" />
    <path
       style="fill:none;stroke:#000000;stroke-width:0.26458332px;stroke-linecap:butt;stroke-linejoin:miter;stroke-opacity:1;marker-end:url(#marker11576)"
       d="m 9.3549113,283.86533 -0.0945,-31.84449"
       id="path11552"
       inkscape:connector-curvature="0" />
    <path
       style="fill:none;stroke:#ff0000;stroke-width:0.26458332px;stroke-linecap:butt;stroke-linejoin:miter;stroke-opacity:0.39215687"
       d="m 9.4356943,257.15506 c 4.4949817,-0.7192 6.1892617,29.02114 13.0962057,32.20598 2.690109,1.24043 6.975503,-4.00782 9.68852,-4.87767 6.519034,-2.09012 15.033911,-0.60134 15.033911,-0.60134"
       id="path11708"
       inkscape:connector-curvature="0"
       sodipodi:nodetypes="cssc" />
    <g
       id="g11737"
       transform="matrix(0.83883716,0,0,0.87257593,8.2110823,253.18856)"
       style="stroke-width:1.16885209">
      <g
         word-spacing="normal"
         letter-spacing="normal"
         font-size-adjust="none"
         font-stretch="normal"
         font-weight="normal"
         font-variant="normal"
         font-style="normal"
         stroke-miterlimit="10.433"
         xml:space="preserve"
         transform="matrix(0.07142857,0,0,-0.07142857,-12.5,75)"
         id="content"
         style="font-style:normal;font-variant:normal;font-weight:normal;font-stretch:normal;letter-spacing:normal;word-spacing:normal;text-anchor:start;fill:none;fill-opacity:1;fill-rule:evenodd;stroke:#000000;stroke-width:1.16885209;stroke-linecap:butt;stroke-linejoin:miter;stroke-miterlimit:10.43299961;stroke-dasharray:none;stroke-dashoffset:0;stroke-opacity:1"><path
           id="path11720"
           d="m 463.44,441.78 v 0.16 0.17 l -0.01,0.16 v 0.08 0.08 l -0.01,0.08 -0.01,0.08 -0.01,0.07 -0.01,0.07 -0.02,0.07 -0.01,0.07 -0.02,0.07 -0.02,0.06 -0.03,0.06 -0.03,0.06 -0.03,0.06 -0.03,0.05 -0.04,0.05 -0.04,0.05 -0.05,0.04 -0.05,0.04 -0.03,0.01 -0.03,0.02 -0.03,0.02 -0.03,0.01 -0.03,0.01 -0.03,0.02 -0.03,0.01 -0.04,0.01 -0.04,0.01 -0.03,0.01 h -0.04 l -0.04,0.01 h -0.04 l -0.05,0.01 h -0.04 -0.05 c -1,0 -1,-0.89 -1,-1.78 v -46.24 c 0,-0.9 0,-1.79 1,-1.79 1,0 1,0.89 1,1.79 z"
           inkscape:connector-curvature="0"
           style="fill:#000000;stroke-width:0" /><path
           id="path11722"
           d="m 491.33,440.98 -0.03,0.06 -0.03,0.06 -0.03,0.05 -0.03,0.05 -0.02,0.05 -0.03,0.05 -0.03,0.05 -0.02,0.04 -0.03,0.04 -0.03,0.04 -0.03,0.04 -0.02,0.03 -0.03,0.04 -0.03,0.03 -0.03,0.03 -0.03,0.03 -0.04,0.02 -0.03,0.03 -0.04,0.02 -0.04,0.02 -0.04,0.02 -0.04,0.01 -0.05,0.02 -0.05,0.01 -0.05,0.01 -0.06,0.01 -0.05,0.01 -0.07,0.01 h -0.06 l -0.07,0.01 h -0.08 -0.04 -0.03 c -0.85,0 -0.94,-0.25 -1.29,-0.89 l -0.31,-4.09 13.41,-26.91 h -26.86 l 13.45,26.91 0.31,4.09 -16.84,-33.78 c -0.25,-0.45 -0.25,-0.55 -0.25,-0.59 0,-0.41 0.3,-0.41 1.09,-0.41 h 34.58 c 0.8,0 1.1,0 1.1,0.41 0,0.04 0,0.14 -0.25,0.59 z"
           inkscape:connector-curvature="0"
           style="fill:#000000;stroke-width:0" /><path
           id="path11724"
           d="m 515.23,409.14 -0.02,-0.07 -0.01,-0.08 -0.02,-0.07 -0.02,-0.08 -0.03,-0.16 -0.04,-0.16 -0.04,-0.16 -0.04,-0.16 -0.03,-0.16 -0.04,-0.16 -0.02,-0.08 -0.01,-0.07 -0.02,-0.07 -0.01,-0.07 -0.02,-0.07 -0.01,-0.07 -0.02,-0.06 -0.01,-0.06 -0.01,-0.06 -0.01,-0.05 -0.01,-0.05 v -0.04 l -0.01,-0.04 v -0.04 l -0.01,-0.03 V 407 c 0,-0.89 0.71,-1.35 1.44,-1.35 0.61,0 1.5,0.39 1.84,1.39 0.11,0.21 1.8,6.99 2,7.88 0.4,1.64 1.3,5.12 1.6,6.48 0.2,0.64 1.59,2.99 2.78,4.08 0.41,0.34 1.84,1.64 4,1.64 1.28,0 2.03,-0.59 2.08,-0.59 -1.49,-0.25 -2.58,-1.46 -2.58,-2.74 0,-0.79 0.55,-1.75 1.89,-1.75 1.34,0 2.73,1.14 2.73,2.94 0,1.75 -1.59,3.23 -4.12,3.23 -3.25,0 -5.44,-2.43 -6.39,-3.82 -0.39,2.23 -2.19,3.82 -4.53,3.82 -2.28,0 -3.24,-1.93 -3.69,-2.82 -0.89,-1.71 -1.55,-4.69 -1.55,-4.85 0,-0.5 0.5,-0.5 0.61,-0.5 0.5,0 0.55,0.07 0.85,1.16 0.84,3.53 1.84,5.92 3.64,5.92 0.84,0 1.54,-0.39 1.54,-2.28 0,-1.05 -0.15,-1.61 -0.79,-4.19 z"
           inkscape:connector-curvature="0"
           style="fill:#000000;stroke-width:0" /><path
           id="path11726"
           d="m 544.58,420.54 v 0.05 l -0.01,0.06 v 0.05 l -0.01,0.06 -0.01,0.05 -0.02,0.06 -0.01,0.05 -0.02,0.06 -0.03,0.06 -0.02,0.05 -0.03,0.06 -0.03,0.05 -0.03,0.06 -0.04,0.05 -0.03,0.05 -0.05,0.05 -0.04,0.05 -0.05,0.05 -0.05,0.04 -0.05,0.05 -0.06,0.04 -0.06,0.03 -0.06,0.04 -0.06,0.03 -0.07,0.03 -0.07,0.03 -0.08,0.02 -0.08,0.02 -0.08,0.01 -0.08,0.01 -0.09,0.01 h -0.09 c -0.94,0 -1.95,-0.91 -1.95,-1.92 0,-0.59 0.45,-1.33 1.4,-1.33 1,0 1.96,0.99 1.96,1.92 z"
           inkscape:connector-curvature="0"
           style="fill:#000000;stroke-width:0" /><path
           id="path11728"
           d="m 537.47,402.84 -0.05,-0.17 -0.06,-0.17 -0.03,-0.08 -0.02,-0.09 -0.03,-0.08 -0.02,-0.09 -0.02,-0.09 -0.02,-0.09 -0.02,-0.1 -0.01,-0.09 -0.02,-0.1 v -0.05 l -0.01,-0.05 v -0.06 -0.05 -0.05 -0.06 c 0,-1.64 1.39,-2.95 3.29,-2.95 3.49,0 5.03,4.79 5.03,5.33 0,0.45 -0.45,0.45 -0.56,0.45 -0.48,0 -0.53,-0.2 -0.67,-0.59 -0.8,-2.79 -2.33,-4.22 -3.69,-4.22 -0.7,0 -0.87,0.45 -0.87,1.22 0,0.79 0.25,1.46 0.56,2.23 0.34,0.94 0.73,1.87 1.11,2.78 0.31,0.84 1.58,4.02 1.72,4.44 0.09,0.34 0.2,0.76 0.2,1.11 0,1.64 -1.39,2.95 -3.31,2.95 -3.45,0 -5.05,-4.73 -5.05,-5.33 0,-0.45 0.49,-0.45 0.6,-0.45 0.48,0 0.51,0.17 0.62,0.56 0.91,3 2.44,4.25 3.72,4.25 0.56,0 0.87,-0.28 0.87,-1.22 0,-0.79 -0.2,-1.32 -1.07,-3.48 z"
           inkscape:connector-curvature="0"
           style="fill:#000000;stroke-width:0" /><path
           id="path11730"
           d="m 562.62,420.54 v 0.06 l -0.01,0.06 v 0.05 l -0.01,0.06 -0.02,0.06 -0.01,0.06 -0.02,0.05 -0.02,0.06 -0.02,0.06 -0.03,0.05 -0.02,0.06 -0.04,0.05 -0.03,0.06 -0.04,0.05 -0.03,0.05 -0.05,0.05 -0.04,0.05 -0.05,0.04 -0.05,0.05 -0.05,0.04 -0.06,0.04 -0.06,0.03 -0.06,0.04 -0.06,0.03 -0.07,0.02 -0.07,0.03 -0.07,0.02 -0.07,0.02 -0.08,0.01 -0.08,0.01 -0.09,0.01 h -0.08 c -1.02,0 -1.96,-0.98 -1.96,-1.92 0,-0.56 0.43,-1.33 1.39,-1.33 0.94,0 1.96,0.91 1.96,1.92 z"
           inkscape:connector-curvature="0"
           style="fill:#000000;stroke-width:0" /><path
           id="path11732"
           d="m 555.23,397.06 -0.06,-0.23 -0.07,-0.22 -0.07,-0.22 -0.08,-0.21 -0.09,-0.21 -0.09,-0.21 -0.1,-0.21 -0.11,-0.2 -0.11,-0.19 -0.11,-0.19 -0.13,-0.19 -0.12,-0.18 -0.14,-0.17 -0.13,-0.17 -0.14,-0.16 -0.15,-0.15 -0.15,-0.15 -0.16,-0.14 -0.15,-0.13 -0.17,-0.13 -0.16,-0.11 -0.17,-0.11 -0.17,-0.1 -0.18,-0.09 -0.17,-0.08 -0.18,-0.07 -0.19,-0.06 -0.18,-0.05 -0.19,-0.04 -0.19,-0.03 -0.19,-0.02 h -0.19 c -0.45,0 -0.87,0.06 -1.26,0.2 0.9,0.42 1.18,1.25 1.18,1.78 0,0.83 -0.65,1.28 -1.36,1.28 -1.07,0 -1.98,-0.94 -1.98,-2.04 0,-1.33 1.36,-2.21 3.45,-2.21 2.1,0 6.16,1.25 7.25,5.5 l 3.13,12.49 c 0.11,0.37 0.17,0.68 0.17,1.22 0,1.9 -1.62,3.26 -3.72,3.26 -3.87,0 -6.09,-4.84 -6.09,-5.33 0,-0.45 0.48,-0.45 0.59,-0.45 0.41,0 0.45,0.11 0.69,0.62 0.87,2.04 2.69,4.19 4.7,4.19 0.88,0 1.19,-0.59 1.19,-1.7 0,-0.39 -0.06,-0.88 -0.11,-1.05 z"
           inkscape:connector-curvature="0"
           style="fill:#000000;stroke-width:0" /><path
           id="path11734"
           d="m 576.36,441.78 v 0.16 0.17 0.16 l -0.01,0.08 v 0.08 l -0.01,0.08 -0.01,0.08 -0.01,0.07 -0.01,0.07 -0.01,0.07 -0.02,0.07 -0.02,0.07 -0.02,0.06 -0.03,0.06 -0.03,0.06 -0.03,0.06 -0.03,0.05 -0.04,0.05 -0.04,0.05 -0.05,0.04 -0.05,0.04 -0.03,0.01 -0.02,0.02 -0.03,0.02 -0.03,0.01 -0.03,0.01 -0.04,0.02 -0.03,0.01 -0.04,0.01 -0.03,0.01 -0.04,0.01 h -0.04 l -0.04,0.01 h -0.04 l -0.05,0.01 h -0.04 -0.05 c -1,0 -1,-0.89 -1,-1.78 v -46.24 c 0,-0.9 0,-1.79 1,-1.79 1,0 1,0.89 1,1.79 z"
           inkscape:connector-curvature="0"
           style="fill:#000000;stroke-width:0" /></g>    </g>
    <g
       id="g11781"
       transform="rotate(-90.895871,123.80898,166.37429)">
      <g
         word-spacing="normal"
         letter-spacing="normal"
         font-size-adjust="none"
         font-stretch="normal"
         font-weight="normal"
         font-variant="normal"
         font-style="normal"
         stroke-miterlimit="10.433"
         xml:space="preserve"
         transform="matrix(0.07142857,0,0,-0.07142857,-12.5,75)"
         id="g11779"
         style="font-style:normal;font-variant:normal;font-weight:normal;font-stretch:normal;letter-spacing:normal;word-spacing:normal;text-anchor:start;fill:none;fill-opacity:1;fill-rule:evenodd;stroke:#000000;stroke-linecap:butt;stroke-linejoin:miter;stroke-miterlimit:10.43299961;stroke-dasharray:none;stroke-dashoffset:0;stroke-opacity:1"><path
           id="path11771"
           d="m 493.68,439.53 v 0.08 0.09 0.08 l -0.01,0.08 v 0.08 0.07 0.07 l -0.01,0.07 v 0.06 l -0.01,0.06 -0.01,0.06 -0.01,0.06 -0.01,0.05 -0.02,0.05 -0.02,0.05 -0.02,0.04 -0.02,0.04 -0.02,0.04 -0.03,0.04 -0.03,0.03 -0.04,0.03 -0.03,0.03 -0.04,0.02 -0.05,0.02 -0.05,0.02 -0.02,0.01 -0.03,0.01 -0.03,0.01 -0.03,0.01 h -0.03 l -0.03,0.01 h -0.03 l -0.04,0.01 h -0.03 -0.04 l -0.04,0.01 h -0.03 -0.04 -0.04 c -0.46,0 -0.55,-0.1 -0.96,-0.44 l -3.28,-2.94 c -3.09,2.49 -6.42,3.38 -9.81,3.38 -12.41,0 -20.03,-7.42 -20.03,-17.63 0,-10.22 7.62,-17.64 20.03,-17.64 9.31,0 14.94,6.13 14.94,11.86 0,1 -0.35,1.05 -1.19,1.05 -0.66,0 -1.1,0 -1.14,-0.85 -0.36,-6.68 -6.39,-9.71 -11.42,-9.71 -3.88,0 -8.07,1.18 -10.66,4.23 -2.34,2.84 -2.94,6.58 -2.94,11.06 0,2.78 0.14,8.17 3.28,11.46 3.25,3.28 7.58,3.84 10.18,3.84 5.37,0 10.1,-3.8 11.2,-10.13 0.15,-0.93 0.2,-1.04 1.34,-1.04 1.3,0 1.35,0.11 1.35,1.4 z"
           inkscape:connector-curvature="0"
           style="fill:#000000;stroke-width:0" /><path
           id="path11773"
           d="m 523.92,417.06 -0.02,0.62 -0.04,0.61 -0.06,0.6 -0.09,0.59 -0.12,0.57 -0.15,0.57 -0.17,0.55 -0.19,0.53 -0.23,0.52 -0.24,0.51 -0.27,0.49 -0.3,0.47 -0.32,0.46 -0.34,0.44 -0.37,0.42 -0.4,0.4 -0.41,0.38 -0.44,0.37 -0.47,0.34 -0.49,0.32 -0.51,0.3 -0.53,0.27 -0.55,0.25 -0.58,0.23 -0.6,0.21 -0.63,0.17 -0.64,0.16 -0.67,0.12 -0.68,0.1 -0.71,0.07 -0.73,0.05 -0.76,0.01 v -1.78 c 2.1,0 4.19,-0.8 5.29,-2.55 1.04,-1.68 1.04,-4.43 1.04,-6.82 0,-4.33 0,-9.72 -6.33,-9.72 v 0 c -6.32,0 -6.32,5.39 -6.32,9.72 0,2.25 0,4.78 0.84,6.48 0.95,1.84 3.05,2.89 5.48,2.89 v 1.78 c -8.17,0 -12.7,-5.08 -12.7,-11.7 0,-6.17 4.39,-11.16 12.7,-11.16 8.38,0 12.71,5.03 12.71,11.16 z"
           inkscape:connector-curvature="0"
           style="fill:#000000;stroke-width:0" /><path
           id="path11775"
           d="m 535.71,423 v 5.62 l -8.27,-0.41 v -2.34 c 3.09,0 3.44,0 3.44,-1.94 v -15.39 h -3.44 v -2.34 c 1.75,0.05 3.99,0.16 6.28,0.16 1.89,0 5.08,0 6.88,-0.16 v 2.34 h -4.35 v 8.72 c 0,3.49 1.25,9.56 6.24,9.56 -0.05,-0.04 -0.96,-0.84 -0.96,-2.29 0,-2.03 1.6,-3.03 3.05,-3.03 1.44,0 3.03,1.04 3.03,3.03 0,2.64 -2.68,4.09 -5.28,4.09 -3.48,0 -5.47,-2.5 -6.62,-5.62 z"
           inkscape:connector-curvature="0"
           style="fill:#000000;stroke-width:0" /><path
           id="path11777"
           d="m 559.34,423 v 5.62 l -8.26,-0.41 v -2.34 c 3.09,0 3.44,0 3.44,-1.94 v -15.39 h -3.44 v -2.34 c 1.75,0.05 3.98,0.16 6.28,0.16 1.89,0 5.08,0 6.87,-0.16 v 2.34 h -4.34 v 8.72 c 0,3.49 1.25,9.56 6.23,9.56 -0.04,-0.04 -0.95,-0.84 -0.95,-2.29 0,-2.03 1.6,-3.03 3.05,-3.03 1.44,0 3.03,1.04 3.03,3.03 0,2.64 -2.69,4.09 -5.28,4.09 -3.49,0 -5.47,-2.5 -6.63,-5.62 z"
           inkscape:connector-curvature="0"
           style="fill:#000000;stroke-width:0" /></g>    </g>
  </g>
</svg>
