<?xml version="1.0" encoding="UTF-8" standalone="no"?>
<!-- Created with Inkscape (http://www.inkscape.org/) -->

<svg
   width="635mm"
   height="317.5mm"
   viewBox="0 0 635 317.49999"
   version="1.1"
   id="svg1"
   inkscape:version="1.3 (0e150ed, 2023-07-21)"
   sodipodi:docname="FRC.svg"
   xml:space="preserve"
   inkscape:export-filename="FRC.png"
   inkscape:export-xdpi="96"
   inkscape:export-ydpi="96"
   xmlns:inkscape="http://www.inkscape.org/namespaces/inkscape"
   xmlns:sodipodi="http://sodipodi.sourceforge.net/DTD/sodipodi-0.dtd"
   xmlns:xlink="http://www.w3.org/1999/xlink"
   xmlns="http://www.w3.org/2000/svg"
   xmlns:svg="http://www.w3.org/2000/svg"><sodipodi:namedview
     id="namedview1"
     pagecolor="#ffffff"
     bordercolor="#000000"
     borderopacity="0.25"
     inkscape:showpageshadow="2"
     inkscape:pageopacity="0.0"
     inkscape:pagecheckerboard="0"
     inkscape:deskcolor="#d1d1d1"
     inkscape:document-units="mm"
     inkscape:zoom="0.26236509"
     inkscape:cx="1320.6788"
     inkscape:cy="611.74298"
     inkscape:window-width="1760"
     inkscape:window-height="976"
     inkscape:window-x="0"
     inkscape:window-y="25"
     inkscape:window-maximized="0"
     inkscape:current-layer="layer1"
     inkscape:export-bgcolor="#ffffffff" /><defs
     id="defs1" /><g
     inkscape:label="Layer 1"
     inkscape:groupmode="layer"
     id="layer1"
     transform="translate(207.57845,-42.436737)"><image
       width="635"
       height="317.5"
       preserveAspectRatio="none"
       xlink:href="FRC.png"
       id="image1"
       x="-207.57845"
       y="42.436737" /><text
       xml:space="preserve"
       style="font-size:19.7556px;font-family:Arial;-inkscape-font-specification:Arial;fill:#00ffff;stroke:#01ffff;stroke-width:1.349"
       x="-182.67294"
       y="70.867485"
       id="text1"><tspan
         sodipodi:role="line"
         id="tspan1"
         style="font-size:19.7556px;fill:#ffffff;fill-opacity:1;stroke:none;stroke-width:1.349"
         x="-182.67294"
         y="70.867485">H2B</tspan></text><path
       style="fill:#000000;fill-opacity:1;stroke:none;stroke-width:1.349"
       id="path1"
       d="m -136.71568,278.11272 c -0.3582,-2.34898 -0.48881,-4.72547 -0.58325,-7.09734 -0.0613,-2.73486 0.34104,-2.55747 -3.88418,-4.13775 -0.38716,-0.1448 -3.26602,2.36356 -3.61749,2.66125 -0.21029,0.21305 -3.69514,3.49198 -3.34976,3.70365 1.18024,0.72334 2.43464,1.31806 3.65195,1.97708 1.1566,-0.45498 1.63636,-1.75622 2.78563,-2.21082 -5.308,-2.59922 -2.41215,-2.2816 -3.03469,0.0799 -0.82477,1.22684 -1.90011,2.26851 -2.92087,3.33149 -1.00948,0.92881 -1.85788,1.98638 -2.69567,3.06626 0,0 3.39279,2.01981 3.39279,2.01981 v 0 c 0.82313,-1.0719 1.6898,-2.0961 2.65767,-3.04208 1.05374,-1.12136 2.21231,-2.18867 3.05624,-3.47968 0.73777,-2.67761 -0.84383,-2.88664 -3.7698,-4.16355 -1.04538,0.58539 -1.61411,1.7604 -2.76749,2.16901 1.04967,0.71757 2.07997,1.46431 3.149,2.15269 0.0345,0.0222 -0.0137,-0.0856 0.003,-0.12311 0.0683,-0.15482 0.14545,-0.30821 0.2472,-0.44343 0.83058,-1.10375 1.90086,-2.01882 2.87174,-2.98944 0.69857,-0.57925 1.82449,-1.57561 2.64709,-2.0253 0.24782,-0.13547 1.00146,-0.0383 0.81064,-0.2465 -3.61006,-3.93955 -2.71595,-1.99135 -2.71907,-0.0585 0.0941,2.3774 0.24132,4.75226 0.51188,7.11698 z" /><path
       style="fill:#000000;fill-opacity:1;stroke:none;stroke-width:1.349"
       id="path2"
       d="m -138.784,278.85519 c 0.10338,-0.94953 0.16633,-2.09137 0.52432,-2.92479 -1.2135,-0.47814 -2.34144,-1.31774 -3.64051,-1.43442 -0.3858,-0.0346 -0.30238,0.71335 -0.46293,1.06586 -0.62702,1.37672 -1.30444,2.73423 -2.04199,4.05476 -0.48882,0.60143 -0.72716,1.66382 -1.50223,1.97472 0.27567,0.54763 -0.77744,-0.0692 -0.63367,0.008 1.09302,0.58793 2.12591,1.28953 3.24649,1.82305 0.0936,0.0446 -0.0792,-0.20372 -0.0588,-0.30533 0.0509,-0.25319 0.17767,-0.485 0.2665,-0.72749 1.34765,-1.9578 2.76625,-3.87759 4.2469,-5.73703 0.46955,-0.58768 1.01197,-1.10672 1.56197,-1.61678 0.45473,-0.38234 0.54327,-0.98399 0.60362,-1.5417 0.007,-0.57121 0.2554,-1.09248 0.51914,-1.58663 0.65575,-3.99797 -3.38492,-2.65433 -4.41341,-1.35509 -0.5445,0.29561 -1.05212,0.63899 -1.60923,0.91698 -0.73294,0.28693 -1.39865,0.73717 -1.64581,1.51124 -0.0686,0.29833 0.0329,0.59157 -0.028,0.8895 0,0 3.49441,1.90664 3.49441,1.90664 v 0 c 0.10619,-0.31187 0.11677,-0.5775 0.0418,-0.89841 0.10123,-0.6896 0.90312,-0.97485 1.44325,-1.23711 0.59324,-0.30691 1.2073,-0.61822 1.72312,-1.04549 0.13337,-0.16538 0.25937,-0.32188 0.45348,-0.42031 0.0741,-0.0376 0.29959,-0.0461 0.23123,-0.0934 -3.18754,-2.20501 -4.07215,-1.00072 -3.1513,-2.15194 -0.27262,0.53861 -0.56298,1.11445 -0.5833,1.72566 -0.0386,0.47347 -0.069,0.96847 -0.46544,1.28893 -0.55935,0.52614 -1.08772,1.08162 -1.55576,1.69268 -1.47125,1.91517 -2.8775,3.88496 -4.30358,5.8344 -0.21255,0.50246 -0.62293,1.36793 -0.47439,1.4852 1.60837,1.26979 2.8176,2.72595 4.42375,1.81457 0.77533,-0.49793 1.07469,-1.46195 1.57393,-2.19766 0.73198,-1.3366 1.37737,-2.71765 2.04112,-4.08923 0.17263,-0.35673 0.75357,-0.75324 0.51652,-1.07083 -0.82128,-1.10031 -2.15116,-1.70681 -3.22675,-2.56022 -0.59775,0.87398 -0.34848,2.22904 -0.64337,3.20347 z" /><path
       style="fill:#000000;fill-opacity:1;stroke:none;stroke-width:1.349"
       id="path3"
       d="m -138.44607,276.3173 c -2.22114,1.49034 -4.56168,2.8135 -6.90282,4.10889 -1.64142,0.92891 -2.29779,1.55353 -3.07014,3.27004 -1.57699,3.16828 -4.00519,5.73631 -6.38105,8.31025 -3.01406,3.18106 -6.11225,6.31217 -9.56561,9.01991 -0.8645,0.60808 -1.65699,1.27242 -2.69174,0.82375 -1.18548,-0.56267 -2.76859,-1.33373 2.78501,1.57108 0.16282,0.0852 -0.24052,-0.28895 -0.40128,-0.37794 -1.21385,-0.67199 -2.44543,-1.31145 -3.66814,-1.96717 -0.58545,0.15914 -1.17039,0.30143 -1.76838,0.40426 -0.0992,-0.0688 -0.23577,0.10149 -0.33883,0.0521 -0.12228,-0.0586 -0.17581,-0.21277 -0.29117,-0.28399 -0.10215,-0.0631 -0.42354,-0.22613 -0.3194,-0.16639 1.03557,0.59403 2.07597,1.17961 3.11395,1.76942 -0.39816,-0.26709 -0.62243,-0.60308 -0.73885,-1.0592 0,0 -3.58965,-1.73601 -3.58965,-1.73601 v 0 c 0.0889,0.51462 0.20851,0.98568 0.6376,1.32472 0.41326,0.24683 3.21705,2.70293 4.78923,2.37973 0.5628,-0.1119 1.12124,-0.30888 1.69721,-0.30311 -7.06635,-4.19763 -0.73197,-0.23445 1.23816,0.8334 1.09123,0.25483 2.01682,-0.62371 2.84915,-1.19148 3.38645,-2.79859 6.46848,-5.94969 9.49374,-9.12886 2.43012,-2.58501 4.95126,-5.14445 6.57506,-8.34211 0.69018,-1.52025 1.45868,-2.24926 2.92433,-3.06808 2.33491,-1.34037 4.67469,-2.67748 6.95234,-4.11192 z" /><path
       style="fill:#000000;fill-opacity:1;stroke:none;stroke-width:1.349"
       id="path4"
       d="m -80.722657,70.619431 c -2.481737,0.2642 -4.936496,0.53381 -7.393173,0.981691 -2.736768,0.562991 -5.525304,0.797907 -8.308845,0.9813 -1.995377,0.172469 -1.146085,-0.05643 2.727433,2.552015 0.348835,0.234908 1.68166,0.412221 2.099628,0.515834 1.421257,0.239451 2.727108,0.884635 4.110005,1.261616 0.502097,0.368001 1.685976,0.132633 0.715725,-0.538777 -0.02529,-0.35543 -0.303295,0.06035 -0.225267,0.06548 0.887876,0.0584 1.76071,-0.259225 2.638478,-0.405018 2.364261,-0.392695 2.366267,-0.380119 4.781201,-0.73074 1.847691,-0.200856 3.681957,-0.560356 5.534025,-0.726138 0.296378,-0.02653 1.131377,0.148764 0.892244,-0.02832 -2.450071,-1.814383 -2.091987,-1.793965 -3.498199,-1.717897 -2.890658,1.123876 -5.900248,1.869604 -8.962094,2.328828 -1.645584,0.203488 -3.300949,0.342466 -4.959527,0.360952 -0.01355,0.0048 -0.02706,0.0096 -0.0406,0.01437 1.218335,0.7321 2.371926,1.58473 3.655005,2.196299 0.472482,0.225202 4.786013,-1.34565 5.285414,-1.514317 1.447988,-0.536432 2.924651,-1.001268 4.315315,-1.679971 0.17328,-0.08457 0.649676,-0.152641 0.505682,-0.280882 -3.05933,-2.724626 -2.326368,-2.574909 -4.596752,-2.356125 -3.587504,0.630282 -7.180643,1.2281 -10.773211,1.828712 0.791368,0.499388 -1.803718,-0.250965 -1.408713,0.0029 1.034375,0.664885 2.091676,1.327888 3.244873,1.754667 0.489551,0.181173 5.629132,-1.863699 5.8635,-1.947596 2.888364,-1.054727 5.819037,-1.988923 8.71968,-3.007989 0.611947,-0.214993 1.218859,-0.444103 1.826538,-0.670883 0.200644,-0.07488 0.783124,-0.125809 0.598331,-0.234056 -1.368655,-0.801724 -2.891851,-1.304276 -4.337775,-1.956414 -5.858018,1.820379 -11.786999,3.374023 -17.761381,4.759735 1.601901,0.746753 -2.875865,-0.0386 -2.256949,0.410446 1.103525,0.800645 2.318507,1.506572 3.626327,1.8918 0.359486,0.105891 0.655743,-0.363413 0.990504,-0.531873 2.079715,-1.04656 1.802604,-0.876372 4.121854,-1.822564 2.010132,-0.797237 4.002387,-1.639917 6.054701,-2.325291 0.314476,-0.105021 0.630375,-0.207129 0.951225,-0.290663 0.07619,-0.01984 0.303273,0.02175 0.235492,-0.01831 -1.235974,-0.730462 -2.516711,-1.382392 -3.775067,-2.073587 -2.031846,0.775851 -5.277342,0.04029 1.432145,2.474986 0.324826,0.117869 0.645459,-0.247102 0.970346,-0.364802 0.660598,-0.239316 1.324007,-0.470805 1.98601,-0.70621 2.17301,-0.724039 4.364384,-1.391175 6.560492,-2.041136 0.956675,-0.283139 1.996853,-0.685663 3.013085,-0.696355 -1.32321,-0.635911 -2.545508,-1.55116 -3.969631,-1.907733 -0.4847,-0.12136 -0.919755,0.391649 -1.387895,0.566311 -0.663271,0.247463 -1.334172,0.474174 -2.005235,0.699652 -1.828086,0.614243 -3.675041,1.169688 -5.522095,1.723274 -1.172522,0.327605 -2.372468,0.531158 -3.565175,0.765743 -0.574755,0.113044 -0.836346,0.164997 -0.695704,0.235802 1.41985,0.714801 2.892497,1.31952 4.338743,1.979279 1.771415,-0.34668 3.511656,-0.83253 5.271125,-1.230267 0.468974,-0.106016 0.933164,-0.273523 1.413814,-0.285881 0.214104,-0.0055 0.794583,0.319938 0.598342,0.234147 -1.23185,-0.538532 -2.470364,-1.061689 -3.705548,-1.592534 -3.148293,2.287216 -6.463654,4.325889 -9.876022,6.191283 -0.287642,0.151493 -0.574331,0.304808 -0.862928,0.454475 -0.201943,0.104727 -0.400016,0.218014 -0.60865,0.308679 -0.100275,0.04358 -0.205949,0.08097 -0.314667,0.09256 -0.0394,0.0042 -0.144042,-0.0659 -0.109016,-0.04738 3.630224,1.919552 2.661513,2.853844 3.803261,1.448848 0.907016,-1.213794 1.597583,-2.597774 2.200847,-3.986437 0.240567,-0.660075 0.640849,-1.41736 0.409506,-2.12815 -4.690108,-2.604812 -3.240257,-2.194508 -7.127785,-1.160114 -1.481109,0.384747 -4.571013,-0.809782 2.271778,1.839636 0.160703,0.06222 0.259427,-0.227166 0.39514,-0.33337 0.218789,-0.17122 0.445278,-0.332367 0.667917,-0.498552 0.375716,-0.5423 2.271805,-1.160801 2.546879,-1.688008 0.05815,-0.111451 0.04044,-0.248144 0.06065,-0.372215 -1.244552,-0.65639 -2.448695,-1.395903 -3.733654,-1.969168 -0.137157,-0.06119 -1.203367,0.349619 -1.303084,0.391035 -1.94011,0.805813 -3.814013,1.783091 -5.711758,2.681737 -1.763025,1.216109 -4.121673,1.419005 -5.865893,2.642737 -0.13837,0.154565 -0.38122,0.161489 -0.52975,0.299683 -0.70801,0.658718 -1.30892,1.424234 -1.98298,2.117643 -0.97298,1.000893 -1.92721,1.899711 -2.93324,2.864472 -2.29847,2.329955 -4.7291,4.554588 -7.4076,6.441948 -0.9726,0.736272 -1.11746,0.670875 -2.09564,0.447918 -4.48702,1.110295 -8.67173,3.185962 -12.86037,5.093338 -6.32467,3.234976 -12.99911,5.816703 -19.05956,9.545778 -1.77806,0.899318 -2.77177,2.256583 -3.8126,3.862493 -2.2863,3.47349 -4.8476,6.75202 -7.57441,9.88825 -2.0077,2.36233 -4.46763,4.28726 -6.43043,6.68697 -1.20186,1.29754 -2.13884,0.21501 2.86875,2.28736 0.13452,0.0557 0.21565,-0.19565 0.32266,-0.29437 0.28958,-0.26717 0.57805,-0.53554 0.86708,-0.80331 0.40097,-0.36578 0.80029,-0.73336 1.20289,-1.09733 0.46219,-0.41784 1.82826,-1.63854 2.33205,-2.07987 0.27127,-0.23762 0.56039,-0.45543 0.81986,-0.70589 0.0823,-0.0794 0.29737,-0.21859 0.20005,-0.27859 -1.17358,-0.72358 -2.45883,-1.24805 -3.68824,-1.87208 -4.55178,4.23908 -9.09553,8.47933 -13.39254,12.97851 -1.51959,1.62815 -3.03187,3.26405 -4.49891,4.93999 -0.2518,0.28766 -0.79293,1.15302 -1.27952,1.22013 5.26974,3.19554 2.03735,1.45538 4.59225,1.24241 0.37926,0.11002 0.75968,0.21511 1.13471,0.33916 0.10825,0.0358 0.42178,0.16916 0.3233,0.1117 -3.4704,-2.02501 -4.02506,-2.58401 -2.94703,-1.56339 0.33299,0.52123 0.37126,0.89254 0.34411,1.50111 -0.68807,5.00305 -1.19631,10.02712 -1.87664,15.03134 -0.26311,2.17277 -0.848,4.31646 -0.58597,6.51253 0.64793,2.23953 0.78916,4.56432 1.03521,6.8705 0.57205,3.51408 1.04757,7.03477 1.30141,10.58665 0.0115,1.04148 1.34184,9.97789 4.73772,6.13164 1.29225,-1.8344 2.16237,-3.93664 3.10872,-5.9621 0.54619,-1.42505 1.43961,-2.72361 1.92781,-4.17378 0.48247,-1.43312 0.64043,-2.9608 0.81701,-4.45229 0.2206,-2.1357 0.3308,-4.25715 -0.04,-6.37668 -0.39105,-1.8848 -0.46228,-1.53036 -3.91729,-2.52824 -0.21466,-0.062 -0.21332,0.39695 -0.27266,0.61237 -0.23368,0.84843 -0.44648,2.81898 -0.53154,3.46882 -0.55397,4.89765 -1.18584,9.78533 -1.73611,14.68349 -0.19834,1.95931 -1.07882,3.0105 3.11669,2.41824 0.421,-0.0594 -0.11895,-0.84209 -0.16718,-1.26452 -0.16253,-1.42369 -0.17489,-1.8814 -0.27783,-3.38317 -0.0382,-3.36441 0.0815,-6.73495 0.35254,-10.08902 -0.009,1.37634 0.0471,-2.28655 -3.49943,-0.86556 -0.74987,0.30045 -0.082,1.61358 -0.1304,2.41995 -0.2353,3.92316 -0.50526,7.8374 -0.84712,11.75283 -0.4335,5.22938 -1.14107,10.43262 -1.58227,15.66087 -0.21755,4.27876 -0.0294,8.57721 0.88119,12.76982 0.59194,1.97388 1.47408,2.37859 4.35846,2.74534 0.35948,0.0457 0.2397,-0.68683 0.30674,-1.04294 0.1366,-0.72567 0.28342,-2.64868 0.34452,-3.35551 0.0588,-3.13011 0.55095,-6.23417 0.63932,-9.35968 -0.0959,-1.77365 -0.45049,-3.5206 -0.81279,-5.25573 -0.0538,-0.75839 -0.39908,-1.42434 -0.63068,-2.13255 -0.21215,-0.73809 -0.2686,-1.50566 -0.29579,-2.26925 -0.0835,-1.12152 0.12679,-2.22545 0.28232,-3.33119 0.18494,-1.25435 0.42842,-2.50262 0.20992,-3.76379 -0.0993,-0.50577 -0.28036,-0.98886 -0.40238,-1.48854 -1.20089,-0.38895 -2.34181,-1.10636 -3.60266,-1.16686 -0.33078,-0.0159 -0.059,0.65971 -0.0834,0.98997 -0.19045,2.58183 -0.31885,5.16286 -0.40547,7.75013 -0.12434,5.70503 -0.45137,11.40064 -0.49071,17.10751 0.22757,7.80863 2.26102,15.36364 4.20793,22.87688 0.95995,3.60727 2.26079,7.09851 3.90387,10.44657 0.82622,1.61307 1.18941,2.00252 4.22389,2.09938 0.4161,0.0133 0.17743,-0.81459 0.23015,-1.22755 0.18909,-1.48096 0.15446,-2.12065 0.17727,-3.63331 0.0326,-2.44171 -0.15452,-4.87081 -0.73342,-7.24467 -0.0836,-0.74341 -0.54398,-1.26862 -0.93625,-1.85967 -1.10294,-1.74586 -1.51805,-3.83112 -2.06633,-5.79979 -1.20626,-4.24752 -2.05971,-8.58431 -2.73324,-12.94501 -0.23795,-1.63698 -0.36771,-3.2885 -0.388,-4.94225 -0.002,-0.53983 -0.003,-0.28074 0.002,-0.77727 0,0 -3.53812,-1.80582 -3.53812,-1.80582 v 0 c -0.002,0.50434 -10e-4,0.24123 -2.6e-4,0.78933 0.0394,1.68314 0.18894,3.36273 0.43522,5.0284 0.74021,4.36334 1.61613,8.70474 2.73201,12.98892 0.38717,1.47598 0.85646,3.75853 1.46417,5.13885 0.11562,0.26262 0.44127,0.40555 0.45115,0.73315 0.38219,0.5614 0.88266,1.05658 1.00906,1.7482 0.67359,2.34274 0.88898,4.75775 0.8691,7.19241 -0.0235,1.72247 0.0279,1.88564 -0.19503,3.54925 -0.0481,0.3591 -0.4474,0.80394 -0.19976,1.0684 0.89734,0.95829 2.16655,1.4836 3.26407,2.20401 0.23315,0.15304 -1.30051,-1.06872 -0.48049,-0.68497 -1.75399,-3.32708 -3.12296,-6.82911 -4.123,-10.45773 -1.98435,-7.47748 -4.05271,-15.00575 -4.25932,-22.79228 0.0521,-5.69098 0.47256,-11.36356 0.5723,-17.05327 0.1059,-2.56378 0.21888,-5.12738 0.48395,-7.68077 0.0344,-0.33168 0.36172,-0.76139 0.12177,-0.99295 -1.01458,-0.9791 -2.36255,-1.53962 -3.54383,-2.30943 0.29074,0.37924 0.24315,1.00417 0.46835,1.42138 0.27573,1.22337 0.0574,2.42776 -0.12449,3.65758 -0.16277,1.12236 -0.43274,2.2363 -0.34351,3.37641 0.0208,0.79123 0.0532,1.58679 0.25179,2.35778 0.18264,0.72659 0.59925,1.3515 0.64561,2.11311 0.40675,1.71273 0.76386,3.44504 0.91511,5.20102 -0.0426,3.1225 -0.56021,6.22399 -0.60131,9.35035 -0.10001,1.12814 -0.16325,2.14968 -0.36344,3.26292 -0.0481,0.26777 -0.40814,0.60411 -0.20864,0.78908 0.92671,0.85922 2.17198,1.29515 3.21931,2.00234 0.32546,0.21976 -2.55946,-0.81663 -0.72175,-0.93112 -1.05871,-4.13191 -1.22619,-8.41663 -0.93205,-12.66107 0.35818,-5.2627 0.91377,-10.50988 1.37329,-15.76414 0.35271,-3.89362 0.64539,-7.79137 0.98711,-11.68571 0.0696,-0.79292 0.63888,-1.69288 0.23144,-2.37667 -2.70259,-4.53568 -2.78634,-4.2054 -3.47917,-2.74234 -0.1596,3.38651 -0.30643,6.77608 -0.30629,10.1668 0.0181,0.34546 0.16025,4.42747 0.36851,4.64956 4.01284,4.27935 3.58432,3.76905 3.83459,1.10094 0.45398,-4.90852 1.06162,-9.79883 1.69381,-14.68729 0.11526,-0.71949 0.21706,-1.44127 0.3458,-2.15846 0.0699,-0.38918 0.14946,-0.77714 0.24982,-1.15959 0.035,-0.13342 0.26237,-0.29691 0.15511,-0.38363 -0.98915,-0.79969 -2.10733,-1.42767 -3.20031,-2.0783 -0.21469,-0.1278 0.81986,1.10915 0.23124,0.71299 0.43644,2.08748 0.37635,4.18207 0.1527,6.2998 -0.16529,1.4606 -0.3158,2.93964 -0.77964,4.34473 -0.47895,1.45086 -1.31605,2.77118 -1.87334,4.18845 -0.93408,1.96946 -1.81515,4.0181 -3.14543,5.75826 1.04228,0.6404 2.03368,1.37215 3.12684,1.92121 0.17526,0.088 -0.20483,-0.33708 -0.27458,-0.52039 -0.44847,-1.17864 -0.62212,-2.45491 -0.74337,-3.70017 -0.25944,-3.55578 -0.70892,-7.08372 -1.30193,-10.59937 -0.21959,-2.29291 -0.28987,-4.61997 -0.94272,-6.8435 -0.37199,-2.17208 0.18819,-4.31755 0.41262,-6.48111 0.63061,-4.99892 1.079,-10.02449 1.99225,-14.98325 0.12704,-0.82526 0.13469,-1.02205 -0.19574,-1.74119 -0.80254,-1.69066 -3.47983,-2.61996 -5.39737,-2.76479 -2.64571,0.46713 -0.95173,2.30498 1.96603,3.25186 0.53517,-0.36287 0.88235,-0.92603 1.28655,-1.42145 1.39904,-1.71476 2.87632,-3.36336 4.37124,-4.99461 4.27011,-4.50778 8.76236,-8.8164 13.54265,-12.78299 -1.03371,-0.75415 -2.02658,-1.56773 -3.10112,-2.26246 -0.0616,-0.0398 -0.0329,0.15037 -0.0833,0.20359 -0.24662,0.26019 -0.52997,0.48292 -0.79558,0.72368 -1.17511,1.06516 -2.35288,2.12758 -3.55222,3.16551 -0.30681,0.26362 -0.62136,0.51848 -0.92044,0.79084 -0.15034,0.13691 -0.5706,0.2923 -0.42669,0.43598 2.66114,2.65697 2.63689,3.27584 3.99039,1.66529 1.89957,-2.43173 4.32595,-4.37993 6.30778,-6.74217 2.73836,-3.15397 5.32702,-6.43734 7.70747,-9.87005 1.01127,-1.52634 1.98743,-2.85869 3.65418,-3.76377 5.95335,-3.822017 12.57024,-6.450163 18.88654,-9.596337 4.15498,-1.836631 8.41998,-4.07268 12.96354,-4.713411 0.86866,0.210269 1.55353,-0.225055 2.23709,-0.761966 2.63255,-1.962078 5.08541,-4.177511 7.37832,-6.524217 1.79878,-1.742596 3.49649,-3.684223 5.51657,-5.155274 1.774331,-1.11715 3.917017,-1.579679 5.706188,-2.677983 1.902798,-0.896197 3.790857,-1.870543 5.776494,-2.575905 0.908685,-0.322795 1.285769,-0.260531 1.272138,-0.270792 -0.987102,-0.742917 -2.089825,-1.318267 -3.134736,-1.9774 0.07112,-0.04069 0.180531,-0.197162 0.213342,-0.122084 0.01458,0.03336 -2.298745,1.531761 -2.497281,1.691907 -0.633581,0.471958 -1.321704,0.95779 -1.237017,1.050958 2.001549,2.201969 2.475828,2.839821 4.482854,2.281019 0.904963,-0.253257 1.812063,-0.582742 2.748164,-0.701768 1.543804,-0.196292 2.020292,0.932529 -2.52475,-1.979578 0.520539,0.392412 -0.08389,1.312992 -0.206695,1.800281 -0.566645,1.364432 -1.240038,2.7204 -2.151274,3.886734 -1.213821,1.491221 -0.635431,0.463934 2.832296,2.911782 0.01979,0.01397 0.754742,-0.354891 1.07878,-0.535175 0.281644,-0.1567 0.562007,-0.315693 0.84301,-0.473541 3.418838,-1.967812 6.758631,-4.068993 10.003589,-6.313009 -0.943451,-0.935959 -1.804482,-1.96306 -2.830348,-2.807876 -0.310142,-0.255407 -1.710494,0.174896 -2.046219,0.254486 -1.764715,0.418362 -3.521506,0.874687 -5.310354,1.184523 0.745625,0.803278 1.478679,1.618409 2.236872,2.409836 0.133228,0.13907 0.372515,-0.09831 0.560454,-0.140364 1.183304,-0.264769 2.376672,-0.487706 3.541971,-0.828619 2.521165,-0.794452 5.057968,-1.561029 7.549828,-2.444198 0.487193,-0.172673 1.621025,-0.06656 1.448413,-0.553774 -0.402981,-1.137479 -1.702474,-1.710727 -2.553713,-2.566092 -3.23804,0.693744 -6.319673,2.01986 -9.510514,2.885156 -0.686827,0.224084 -1.377714,0.436087 -2.060482,0.672252 -0.359905,0.124489 -1.280152,0.09407 -1.066612,0.409392 1.96433,2.900614 2.861982,2.641989 5.191807,1.886136 -0.925481,-0.804977 -1.8097,-1.66 -2.776439,-2.414925 -0.05924,-0.04626 -0.139108,0.05706 -0.209609,0.08312 -0.302757,0.111933 -0.607531,0.218375 -0.910095,0.330839 -2.01989,0.750802 -4.010046,1.57477 -6.012667,2.370049 -1.944759,0.779349 -2.426493,0.929952 -4.228877,1.800543 -0.368639,0.178059 -1.300962,0.22657 -1.085443,0.574638 1.961026,3.167075 2.758887,2.535787 5.143646,1.969915 5.967462,-1.486141 11.891343,-3.127221 17.833072,-4.706027 -0.725284,-0.81874 -1.329147,-1.763789 -2.175851,-2.456221 -0.146251,-0.119603 -0.325057,0.195068 -0.499047,0.268698 -0.584626,0.247405 -1.178197,0.473591 -1.773835,0.693154 -2.878526,1.061074 -5.799357,2.007139 -8.692287,3.02715 -0.297331,0.100457 -4.230638,1.401239 -4.935916,1.724954 -0.53185,0.244112 -1.865416,0.408731 -1.518928,0.880327 1.607428,2.187805 3.126113,2.147083 5.073293,1.935395 3.570959,-0.658939 7.145998,-1.31863 10.749896,-1.771099 1.845281,0.114419 2.353884,0.322926 -1.901748,-2.098326 -0.152625,-0.08684 -0.293651,0.193836 -0.449633,0.274484 -0.914043,0.472569 -1.455044,0.663697 -2.474079,1.043636 -0.584504,0.217926 -1.173467,0.423711 -1.760199,0.635566 -1.533972,0.488426 -3.049561,0.975492 -4.629896,1.291545 -0.243303,0.04866 -0.896009,-0.06626 -0.734311,0.121936 0.809757,0.942483 3.435656,1.262533 2.870252,2.378543 1.643896,-0.0833 3.284829,-0.221594 4.91526,-0.452218 3.118115,-0.502637 6.188035,-1.293619 9.132581,-2.447412 1.439148,-1.514332 1.10813,-0.792715 -3.045939,-2.691262 -0.367469,-0.167947 -3.770037,0.485989 -4.123695,0.53625 -0.740286,0.105201 -1.4805,0.210912 -2.220749,0.31637 -1.308386,0.188092 -3.514394,0.501825 -4.833276,0.704601 -0.655013,0.100709 -2.247363,0.285631 -2.943032,0.649679 -0.437433,0.228912 -0.150087,0.355568 -0.01341,0.45076 0.767649,0.536393 1.115872,-0.368699 -0.146264,-0.421888 -1.358644,-0.426705 -2.687715,-0.962727 -4.092279,-1.228821 -0.476922,-0.121705 -1.216993,-0.303749 -1.69631,-0.451352 -0.136922,-0.04216 -0.51344,-0.239938 -0.403468,-0.148114 2.869038,2.395577 1.810985,2.415939 3.589295,2.20382 2.774466,-0.238384 5.557665,-0.474146 8.288168,-1.044294 2.473142,-0.433094 4.954661,-0.656566 7.449232,-0.925595 z" /><path
       style="fill:#000000;fill-opacity:1;stroke:none;stroke-width:1.349"
       id="path5"
       d="m 16.459175,83.458739 c -0.961249,-1.432459 -1.437084,-3.111775 -2.24858,-4.614841 -1.268216,-0.767429 -2.446567,-1.708211 -3.804655,-2.302285 -0.261633,-0.114448 -0.5507672,0.160671 -0.808093,0.284504 -1.133393,0.545422 -1.9504633,1.410065 -2.684952,2.399323 -0.4599172,0.544976 -0.7041065,1.239438 -1.1066779,1.818833 -0.043413,0.06248 -0.2393897,0.115631 -0.1717093,0.150392 3.6749407,1.887562 3.0808003,2.713728 3.7848672,0.781892 0.703908,-1.775196 2.475407,-3.621747 2.889724,-5.467221 -1.319462,-0.613301 -2.5578334,-1.445484 -3.9583893,-1.839899 -0.3056229,-0.08607 -0.5608294,0.303374 -0.8130964,0.496181 -2.2359143,1.708907 -4.2374951,3.743206 -6.3878591,5.558171 -0.38532066,0.281157 -0.75499384,0.585121 -1.15596194,0.84347 -1.17258566,0.75551 -5.32753356,1.548919 2.33268044,1.913488 0.4310036,0.02051 0.404188,-0.762778 0.6223926,-1.13503 0.2419508,-0.412764 0.5050446,-0.812766 0.7575655,-1.21915 0.2435966,-0.369422 0.4764273,-0.74617 0.7307871,-1.108266 C 4.7984112,79.504129 5.1612793,79.11454 5.4899633,78.589625 5.5439039,78.50348 5.7043154,78.362878 5.61627,78.312096 2.0865062,76.276215 3.0075287,75.747654 1.646131,76.684371 c -0.038624,0.128974 -0.2325634,0.319773 -0.1158716,0.386922 1.1878125,0.683511 2.47455,1.182076 3.74319,1.700374 0.07955,0.0325 0.1667351,-0.09709 0.2481898,-0.06972 0.08704,0.02925 0.2575322,0.253815 0.1756939,0.212175 -1.0738432,-0.546404 -2.067605,-1.250722 -3.170428,-1.735981 -0.1302279,-0.0573 0.093903,0.268615 0.1408536,0.402923 -0.6019562,2.077368 -1.2711086,4.135432 -1.85764485,6.219113 -0.14250193,1.853838 -0.2485972,1.10589 3.72871735,2.458183 0.2165323,0.07362 2.0903538,-1.864757 2.3554636,-2.149274 0.4723977,-0.365667 0.6997409,-1.131411 1.2994984,-1.295754 0.04449,-0.007 0.1020577,-0.05325 0.1334664,-0.02098 0.043844,0.04505 0.084746,0.212886 0.02767,0.186542 -1.0974626,-0.506521 -2.0920895,-1.235136 -3.2231515,-1.661385 -0.1523497,-0.05741 0.066479,0.319011 0.088993,0.480256 0.053697,0.384582 0.06046,0.668533 0.080468,1.053327 0.3148806,5.511081 4.1575116,2.334795 5.3611329,1.05046 -3.1069332,-1.881228 -3.272475,-2.94408 -4.6512823,-0.433274 -0.00185,4.976945 5.0100433,1.454287 6.3587463,0.789747 0.707136,-0.348425 1.261158,-0.552165 1.982364,-0.836954 1.778588,-0.686792 3.815546,0.200215 -1.942679,-2.052712 -0.141877,-0.05551 -0.195858,0.233918 -0.303432,0.3418 -0.180713,0.181231 -0.373708,0.349779 -0.560562,0.524668 -0.649423,0.394097 -1.403863,1.586357 -2.2897461,1.352273 -0.4572926,-0.341522 -1.0093774,0.377658 -1.2995089,0.68304 -0.3524674,0.33174 -0.4658175,0.761524 -0.5177658,1.226278 -0.049776,0.361992 -0.028567,0.647324 0.1396418,0.980186 0.3634475,0.965271 0.4417616,2.014548 0.5155988,3.03608 0.08636,2.392177 0.5259732,1.47292 3.9304802,3.320658 1.26688,0.70588 3.505435,1.719273 -2.3578365,-1.375134 -0.089593,-0.04728 0.1580991,0.134723 0.2045864,0.224731 0.080203,0.155292 0.1120034,0.331129 0.1680041,0.496695 0.274556,2.387727 0.342091,4.796263 0.591585,7.191343 0.239977,1.962223 0.687726,2.201323 3.928083,2.609013 0.361588,0.0455 0.152834,-0.71418 0.189424,-1.07678 0.08379,-0.83034 0.182819,-3.568903 0.21237,-4.284159 0.168188,-5.088109 0.212434,-10.171075 -0.07383,-15.254494 -0.117537,-1.905079 -0.254241,-3.809494 -0.321604,-5.717243 -0.01886,-1.337146 0.02766,-1.518299 -3.624537,-1.019196 -0.02212,0.003 -0.491432,5.655971 -0.792708,8.27851 -0.2339676,1.839114 -0.4783368,3.677129 -0.7866954,5.505453 -0.054057,0.320529 0.057557,0.728903 -0.1709738,0.960062 -0.1297411,0.131236 -0.55626,-0.461725 -0.382143,-0.40058 0.9361938,0.328753 1.8101832,0.813256 2.7152732,1.219886 C 9.2072876,86.934793 7.9154172,83.118025 6.8244343,79.31248 6.1549167,76.911162 6.150567,76.659421 2.5827137,75.565181 c -0.052602,-0.01614 -1.2528682,1.6148 -1.79877508,2.28686 -0.17316185,0.204259 -0.32623124,0.427416 -0.51948555,0.612778 -0.91461959,0.877266 -5.03907157,0.511564 2.58328053,2.022988 0.3627781,0.07193 -0.213786,-0.71215 -0.256077,-1.079563 C 2.4977189,78.592158 2.4907736,77.768396 2.4403335,76.948471 2.0104702,73.580576 2.808652,70.05159 2.0913772,66.714325 1.59817,65.582452 -1.120175,64.530601 -2.7592952,64.214319 c -0.9778788,0.03153 -2.1329994,0.559957 -2.9760756,1.086117 -0.9157679,0.619916 -1.6685207,1.43534 -2.4803206,2.185732 -0.9966483,0.819248 -2.0798496,2.32154 -3.5401226,2.084447 1.053592,0.499012 2.0000492,1.388528 3.1607816,1.497036 0.4121917,0.03853 -0.1713283,-0.811167 -0.2207472,-1.222198 -0.06676,-0.555254 -0.081566,-1.115543 -0.127336,-1.672921 -0.1252511,-1.52526 -0.277749,-3.048174 -0.4256511,-4.571347 -0.422447,-2.565387 -0.9769713,-2.552151 -4.4401713,-3.861842 -0.734703,-0.277846 -2.341578,1.862648 -2.675678,2.283823 -1.005131,1.10146 -1.403731,2.895316 -2.708916,3.720811 -1.337905,0.287403 -0.560006,0.08934 3.171968,1.719672 0.12604,0.05506 -0.16633,-0.220693 -0.229772,-0.34273 -0.162155,-0.311931 -0.253677,-0.674841 -0.374015,-1.005101 -1.21285,-0.524097 -2.425702,-1.048194 -3.638552,-1.572291 0.02151,0.06168 -0.348274,0.566078 -0.376971,0.516793 -0.03774,-0.06481 -0.0565,-0.258048 0.01069,-0.224732 1.128602,0.559614 2.192809,1.240654 3.289213,1.860981 -0.54579,-1.596197 0.338553,-1.208531 -4.000217,-1.71111 -0.08387,-0.0097 -1.292987,2.305906 -1.418719,2.549129 -0.777868,1.644777 -2.183419,2.815566 -3.617347,3.874111 0.145688,0.383484 -0.786479,0.20619 -0.750638,0.225052 4.726979,2.487697 3.476632,2.772743 3.128748,1.258594 -0.05419,-0.483989 -0.01156,-0.971574 0.004,-1.45659 0.07404,-2.001805 0.155155,-0.796996 -3.51845,-2.349082 0.07072,1.076349 -0.167759,2.194282 0.249695,3.212039 1.351878,0.695931 2.63212,1.553462 4.055629,2.087788 0.319894,0.120076 0.676323,-0.104386 1.007827,-0.18718 0.626962,-0.156586 1.247976,-0.337354 1.864733,-0.530251 1.998742,-0.625123 3.968678,-1.359599 5.942333,-2.058922 2.730555,-0.919781 5.4851903,-1.859415 7.974041,-3.33069 0.8922173,-0.60657 1.5753953,-1.429866 2.0762701,-2.378228 0.065138,-0.123329 0.3020033,-0.313325 0.1786281,-0.378374 -1.3411491,-0.707123 -2.8009215,-1.161753 -4.2013822,-1.742629 -4.075089,2.475824 -8.150251,4.941972 -12.379365,7.15163 -0.922932,0.499364 -1.876451,0.972968 -2.908249,1.200865 -0.139915,0.0309 -0.283647,0.07918 -0.425649,0.06002 -0.08723,-0.01177 -0.296486,-0.189471 -0.219358,-0.147042 1.093264,0.601435 2.179064,1.21634 3.268594,1.824511 -0.27686,-0.22973 -0.221906,-0.72566 -0.09847,-1.030129 1.638705,-1.506828 3.507962,-2.724028 5.226653,-4.136767 1.371913,-0.965305 2.803941,-1.832095 4.200216,-2.761051 0.439211,-0.270841 0.850712,-0.584512 1.287883,-0.858496 0.398682,-0.249862 0.5771621,-0.288385 0.5692775,-0.293769 -3.4886265,-2.383019 -2.2778195,-2.672169 -4.1309185,-1.948085 -1.563275,0.5118 -3.005513,1.301952 -4.48184,2.012783 -1.523977,0.804385 -2.917693,1.768858 -4.187077,2.931527 -0.991031,0.922375 -2.10884,1.679378 -3.265201,2.375412 -1.649455,0.947852 0.346458,1.247177 3.115132,2.518323 0.133252,0.06118 3.315346,-0.791154 3.403521,-0.814634 3.837165,-1.120206 7.798723,-1.681924 11.7203827,-2.401805 6.71952226,-1.317386 13.3087346,-3.248428 19.9416293,-4.94824 3.705032,-0.80379 7.353906,-1.954263 11.102798,-2.560756 1.505889,-0.243621 2.558608,-0.300233 4.072265,-0.423988 3.503182,-0.311499 7.007961,-0.61003 10.522432,-0.754979 1.196144,0.06663 2.449806,-0.233631 3.638529,0.02851 0.286697,0.06322 1.078121,0.461814 0.819306,0.323222 -3.077813,-1.648141 -3.2008,-2.178777 -2.321539,-0.627531 0.17966,1.7223 -0.210542,3.539312 -1.25032,4.941785 -0.804807,0.946452 -1.811414,1.516499 -2.978783,1.890962 -1.571318,0.350565 -3.150407,0.669187 -4.724286,1.015177 -2.670905,0.664164 -5.298395,1.518522 -7.940974,2.296212 -2.057598,0.601022 -5.757433,0.66721 1.626738,2.476648 0.497263,0.121851 0.935127,-0.417145 1.402691,-0.625716 3.132934,-1.339265 6.276975,-2.664693 9.560293,-3.593383 0.667006,-0.01834 2.673768,-1.300903 3.249713,-0.573931 -1.214565,-0.641759 -2.351511,-1.459135 -3.643691,-1.925278 -0.21286,-0.07679 -0.354555,0.281338 -0.535035,0.417839 -1.093465,0.827005 -2.258663,1.544847 -3.448336,2.222689 -1.211982,0.780934 -2.478013,1.447393 -3.63746,2.299415 -0.770101,0.405135 -1.465548,0.915858 -2.316019,1.132459 -2.123009,0.873998 -2.940164,0.61641 2.109202,2.742909 0.298742,0.125812 0.605727,-0.23108 0.908588,-0.34662 3.328892,-1.23285 6.701501,-2.345968 10.129117,-3.270007 1.833341,-0.399433 3.971788,-1.252032 5.768607,-0.349083 -0.969631,-0.518179 -1.909278,-1.096875 -2.9089,-1.554538 -0.132334,-0.06059 0.404662,0.280722 0.785188,0.875744 0.60919,0.952582 0.867365,2.076744 1.177142,3.147848 0.32253,1.651844 0.988573,3.322773 0.946486,5.02733 -0.142645,0.92743 -0.834332,1.613434 -1.27947,2.405843 -0.396666,0.717719 -0.603755,1.512183 -0.704678,2.320292 -0.192669,0.629309 -0.456594,1.233244 -0.605152,1.876838 -0.172731,1.076674 -0.12782,2.17284 -0.12106,3.259005 0.01802,2.17351 -0.358214,4.3238 -0.498761,6.490187 0.03948,0.67188 0.04434,1.346692 0.118436,2.015641 0.3659,3.303246 1.3199,6.558876 1.907608,9.825496 0.651074,3.61883 0.919938,5.64972 1.464517,9.33609 0.974825,7.2704 1.742551,14.56568 2.434373,21.86767 0.171812,1.56807 0.278212,3.13845 0.299161,4.71513 0.14345,3.45753 -0.203639,6.904 -0.596987,10.33389 -0.221919,1.47391 -0.33038,2.96109 -0.356796,4.45045 -0.0041,0.22983 -0.0024,1.22852 0.02135,1.24551 1.12486,0.8044 2.38742,1.39633 3.58113,2.09449 0.730467,-0.93313 1.182825,-2.21003 1.303594,-3.39393 -1.140182,-3.95492 -3.886792,-2.66918 -4.995045,-0.83285 -0.500194,0.82881 -0.546279,1.08678 -0.891235,2.00756 -0.820222,3.76234 -1.141384,7.61676 -1.492203,11.4464 -0.02722,0.31718 -0.03785,0.63622 -0.08167,0.95153 -0.02588,0.18631 -0.0714,0.37011 -0.126963,0.54981 -0.031,0.10026 -0.06414,0.20556 -0.131485,0.28603 -0.01786,0.0213 -0.09577,-0.0566 -0.07079,-0.0443 3.433043,1.6875 3.925234,2.6949 3.070122,1.23514 -0.743876,-1.8843 -0.477788,-1.84758 -4.117687,-2.0653 -0.0349,-0.002 -0.119327,1.50803 -0.121214,1.53875 -0.08161,1.98821 -0.47304,2.05764 3.491757,2.49356 0.33188,0.0365 -0.047,-0.6665 -0.0902,-0.99757 -0.05369,-0.41143 -0.133512,-0.81903 -0.200269,-1.22855 -0.212074,-0.64073 -0.49504,-3.94104 -1.056169,-4.30501 -1.161965,-0.75369 -2.395161,-1.39143 -3.592742,-2.08715 -0.453401,0.76304 -0.501936,1.658 -0.802714,2.48282 -0.04501,0.12342 -0.272669,0.29844 -0.157337,0.36134 1.024879,0.55897 2.162151,0.88113 3.243225,1.3217 -0.986425,-2.49203 -1.218552,-5.23754 -1.456499,-7.89071 -0.0922,-1.18252 -0.154157,-2.36783 -0.15166,-3.55413 0.01159,-2.16994 0.222428,-0.86138 -3.589022,-2.61975 -0.400336,2.45623 -0.456441,4.9514 -0.343964,7.43262 0.149191,2.17593 0.269857,2.74289 3.916646,2.8782 0.415552,0.0154 0.135847,-0.821 0.179554,-1.23453 0.08019,-0.75876 0.208285,-2.85279 0.256757,-3.59906 0.0913,-1.63378 0.15372,-3.26897 0.213331,-4.90415 0.0091,-0.24907 -0.07916,-1.52301 0.24036,-1.81138 -1.09275,-0.33759 -2.145133,-1.168 -3.278253,-1.01275 -0.478687,0.0656 0.182539,0.94923 0.25291,1.42724 0.08841,0.6005 0.161197,1.20338 0.22325,1.80717 0.218546,2.12649 0.318362,4.26079 0.418203,6.39518 0.0524,1.31746 0.09798,2.63545 0.11366,3.95394 0.0021,0.16946 -0.170937,0.4435 -0.01431,0.50821 1.201457,0.49644 2.421207,0.94739 3.631811,1.42108 0.288739,-1.75894 0.08984,-3.59871 0.41775,-5.35006 0.150768,-0.80523 0.128072,-0.68652 0.472289,-0.3739 -3.899238,-1.94048 -3.551941,-2.35707 -2.576742,-0.87126 0.462857,0.70521 0.818933,1.47111 1.230955,2.205 0.836525,1.29123 0.341993,0.616 3.842898,1.64026 0.107273,0.0314 0.07196,-0.21183 0.100426,-0.31991 0.0226,-0.0857 0.133241,-0.2241 0.05252,-0.26079 -1.139598,-0.51802 -2.283185,-1.10817 -3.517882,-1.31445 -0.239175,-0.04 0.003,0.48498 0.0044,0.72746 -0.02551,1.78269 -0.106442,3.62005 -0.556993,5.3557 1.158224,0.51812 2.210126,1.45018 3.474672,1.55435 0.437838,0.0361 -0.182446,-0.85951 -0.26879,-1.29027 -0.129095,-0.64402 -0.209542,-1.29901 -0.377515,-1.93401 -0.859301,-3.24844 -2.117958,-6.38055 -3.365881,-9.49218 -0.9852,-2.23464 -1.918788,-4.49139 -2.818149,-6.76175 -0.128667,-0.32482 -0.24634,-0.65404 -0.381129,-0.97635 -0.05085,-0.1216 -0.05218,-0.30751 -0.175363,-0.35438 -1.115608,-0.42452 -2.288657,-0.67914 -3.432985,-1.01871 1.139973,3.48275 1.763011,7.09926 2.351521,10.70696 0.402998,2.53606 0.124066,2.00787 4.049559,3.18964 0.01125,0.003 0.440934,-0.70611 0.504214,-0.80344 0.276469,0.57241 0.596022,0.35206 0.822047,-0.14391 0.112144,-0.16317 0.04627,-1.12054 0.168521,-0.87754 -1.074359,-0.55526 -2.13824,-1.13129 -3.22308,-1.6658 -0.221863,-0.10931 0.375738,0.32257 0.549799,0.49829 0.06992,0.0706 0.617797,0.65313 0.717534,0.71389 1.242597,0.757 2.520575,1.45433 3.780862,2.18149 1.314569,0.26459 2.655117,-0.25909 3.928705,-0.54686 0.840269,-0.17861 1.73899,-0.44834 2.613829,-0.38252 1.016135,0.0764 5.184945,2.64126 -2.332455,-1.40257 0.469207,0.98835 0.374885,2.13602 0.371898,3.20403 0.01386,1.54088 -0.05448,3.0704 -0.214937,4.60293 0.11339,0.0726 -0.426648,2.88678 -0.406646,2.89641 1.028491,0.49492 2.094688,1.03169 3.231663,1.13182 0.323215,0.0285 -0.272748,-0.58883 -0.409122,-0.88324 -1.074489,-2.78819 -2.527081,-5.41248 -3.877609,-8.07313 -0.81997,-1.50832 -1.667275,-2.97992 -2.757406,-4.30565 -0.340185,-0.46872 -0.75933,-0.86493 -1.103156,-1.33121 -1.203436,-0.47696 -2.327212,-1.25939 -3.610308,-1.4309 -0.323438,-0.0432 0.09287,0.64604 0.146515,0.96791 0.101865,0.6112 0.219983,1.21963 0.319982,1.83114 0.442611,2.70665 0.702352,5.41876 0.943737,8.14952 0.405942,3.75348 0.262887,7.54898 0.752777,11.29211 0.09614,1.09659 0.444748,2.11096 0.948833,3.0802 0.332239,0.64813 0.844097,1.16643 1.285023,1.73594 0.223755,0.46182 0.495958,0.89267 0.760023,1.33167 1.241658,0.40934 2.424404,1.09463 3.724976,1.22802 0.140235,0.0144 0.18011,-5.15219 0.186243,-5.61159 0.02727,-2.25482 0.396391,-1.71632 -3.460157,-2.68683 -0.166428,-0.0419 0.078,0.33428 0.113286,0.50223 0.04457,0.21215 0.08416,0.42531 0.126246,0.63796 0.318916,1.76952 0.241996,3.57634 0.457145,5.35483 0.3102,1.43306 1.264999,2.49686 2.315752,3.45554 1.657472,1.26309 3.550642,2.15228 5.36098,3.17501 0.186854,0.10556 0.740373,0.43442 0.553685,0.32856 -2.867612,-1.62605 -3.896264,-2.30492 -2.590898,-1.45519 1.242563,0.7143 2.47818,1.44083 3.727688,2.14291 0.472702,0.26561 0.868969,-0.0239 1.090002,-0.43819 0.445558,-0.55202 0.605578,-1.22831 0.729562,-1.90966 0.352293,-2.65085 -0.667676,-1.96807 -3.877424,-2.97823 -1.738315,5.21851 -4.618392,9.9911 -7.094283,14.8866 -1.64228,3.99781 -3.863687,7.78278 -5.338321,11.84831 -1.39841,4.87704 -1.688637,10.02241 -2.194443,15.05273 -0.45959,3.29746 -0.495568,6.63933 -0.84509,9.94575 -0.252489,2.3885 -0.753814,4.72258 -1.298165,7.05676 -0.432009,2.30051 -1.456738,3.69215 -3.53115,4.71527 -0.970135,0.66921 -1.903283,0.84051 -3.041873,0.65343 1.032659,0.54113 2.032014,1.15124 3.097975,1.6234 0.117038,0.0518 -0.162087,-0.20935 -0.188402,-0.33462 -0.04114,-0.19582 -0.04269,-0.40317 -0.008,-0.60023 0.2092,-1.18771 1.044154,-2.20979 1.695854,-3.17647 1.152256,-2.16454 3.139131,-3.91479 4.055375,-6.20532 -0.704054,-4.29316 -5.379958,-1.49576 -7.232896,-0.7499 0.490228,0.20655 -1.255239,0.1896 -0.962914,0.37085 1.133134,0.70255 2.277898,1.47964 3.572325,1.79907 0.321312,0.0793 0.409882,-0.52108 0.639064,-0.75984 0.354642,-0.36945 3.514267,-3.43726 3.664656,-3.58362 0.669605,-0.64446 1.352516,-1.27539 2.008812,-1.9334 0.295021,-0.29579 2.108613,-2.18717 2.496672,-2.7412 0.120533,-0.17209 0.393843,-0.45894 0.227811,-0.58769 -3.465634,-2.68734 -2.649071,-2.75575 -4.766746,-1.79246 -0.569974,0.17641 -3.083814,1.77067 -3.566983,1.7541 -0.03693,-0.13838 -0.01646,-0.22226 -0.213302,-0.0296 -1.176186,1.15137 -2.31322,2.34841 -3.503596,3.49056 -1.488448,1.34702 -2.989615,2.69068 -4.761455,3.6525 -0.775555,0.34463 -1.613699,0.28837 -2.441512,0.28515 -1.194707,0.10678 -2.309929,0.52927 -3.497341,0.67461 -0.03252,-0.0482 -0.148659,-0.17231 -0.09757,-0.14458 4.83194,2.62306 2.203562,2.27744 4.672537,0.90485 0.919776,-0.55573 1.936956,-0.89268 2.866451,-1.42994 0.365553,-0.32549 0.973571,-0.28202 1.217437,-0.7324 0,0 -3.494005,-1.9411 -3.494005,-1.9411 v 0 c -0.07177,0.02 -0.827926,0.3099 -1.048999,0.5118 -0.931812,0.52636 -1.95268,0.86976 -2.863426,1.43724 -1.533682,0.94373 -4.205386,3.99423 1.996357,3.68237 1.15501,-0.20027 2.266588,-0.61489 3.450178,-0.63693 0.890651,-0.004 1.758092,-0.005 2.559534,-0.45247 1.747639,-1.042 3.245405,-2.41434 4.750136,-3.77416 1.470371,-1.40856 0.677198,-0.65504 2.153793,-2.0445 0.04305,-0.0405 1.07959,-1.03928 1.304732,-1.18698 0.06521,-0.0428 0.148042,0.31017 0.233844,-0.008 1.18991,-0.57713 2.321036,-1.29507 3.541323,-1.81948 1.776759,-0.50872 1.760805,-0.26565 -1.964663,-2.29641 -0.143823,-0.0784 0.0013,0.34479 -0.08489,0.48402 -0.356323,0.575 -2.097236,2.45782 -2.390172,2.75696 -0.649713,0.66348 -1.335931,1.29019 -2.003899,1.93528 -1.258271,1.18943 -2.557698,2.33525 -3.802678,3.53858 -0.251077,0.24268 -0.917155,0.49688 -0.705361,0.7745 2.294964,3.00829 2.264251,2.79112 4.092289,2.03442 0.748191,-0.31295 1.486054,-0.6561 2.236978,-0.96137 0.264266,-0.10744 0.988171,-0.0826 0.801965,-0.29876 -1.963983,-2.27942 -4.043539,-1.82178 -2.553644,-2.10084 -0.238895,0.79254 -0.704181,1.41188 -1.16486,2.09641 -0.914982,1.35958 -1.834851,2.71596 -2.772513,4.06005 -0.802638,1.17289 -1.98202,2.54435 -1.93208,4.07043 0.0056,0.16952 -0.01892,0.39624 0.119221,0.49467 1.188209,0.84672 2.498598,1.50735 3.747897,2.26103 1.173448,0.0941 2.175256,-0.20561 3.159395,-0.86268 2.096841,-1.16292 3.234909,-2.63513 3.624127,-5.05317 0.508072,-2.36287 1.008603,-4.73889 1.251382,-7.1475 0.333803,-3.31167 0.326667,-6.66127 0.780399,-9.96415 0.531794,-4.97831 0.91975,-10.05466 2.333302,-14.87563 1.409599,-4.0797 3.498977,-7.91697 5.157523,-11.89499 2.457555,-4.92296 5.349359,-9.66917 7.316859,-14.81182 -1.130856,-0.73923 -2.278362,-1.45357 -3.392557,-2.21767 -0.04347,-0.0298 0.116425,-0.0327 0.158142,-5.3e-4 0.06708,0.0518 0.09483,0.14195 0.12669,0.22051 0.159422,0.39314 0.05527,0.78742 0.0186,1.19414 -0.105833,0.65276 -0.249123,1.27783 -0.686128,1.79806 -0.126772,0.30047 -0.547939,0.006 -0.723191,-0.0756 1.020927,0.5971 2.041851,1.19419 3.062777,1.79129 -1.339672,-0.92161 -8.633057,-5.09798 -2.004554,-1.15382 0.462372,0.27513 -1.942905,-1.14078 -1.366446,-0.85916 -1.043014,-0.86899 -2.014863,-1.87164 -2.430831,-3.19722 -0.268819,-1.77498 -0.167184,-3.58784 -0.439187,-5.36578 -0.02839,-0.17059 -0.170809,-1.09886 -0.222236,-1.13544 -4.306457,-3.06321 -3.602157,-3.25573 -3.604816,-0.83109 0.0067,1.57765 0.01749,3.15957 -0.09192,4.73448 -0.01773,0.25527 -0.272627,0.59767 -0.07791,0.7637 1.031944,0.87992 2.312096,1.41806 3.468143,2.12709 -0.443881,-0.0501 -0.643888,-0.84543 -0.833983,-1.18791 -0.335515,-0.63973 -0.967637,-1.07109 -1.30297,-1.72175 -0.558252,-0.90637 -0.910703,-1.9099 -1.051734,-2.96619 -0.582629,-3.75115 -0.498002,-7.56845 -0.899078,-11.34079 -0.23237,-2.72202 -0.465048,-5.42868 -0.850196,-8.13358 -0.08539,-0.5997 -0.16917,-1.19964 -0.258019,-1.79884 -0.04318,-0.29121 0.09551,-0.69314 -0.138068,-0.87233 -1.082363,-0.83036 -2.387452,-1.32064 -3.581178,-1.98096 0.337487,0.4929 0.726774,0.91786 1.1141,1.35871 0.350658,0.45875 0.776724,0.84847 1.103138,1.32706 0.64407,0.94435 1.128001,1.99658 1.767559,2.94404 1.35971,2.63444 2.791693,5.25591 3.841203,8.03199 0.908761,2.16302 0.349654,1.32529 4.251002,3.24756 0.123822,0.061 0.04375,-0.27261 0.06225,-0.4094 0.114054,-0.8432 0.20189,-1.68991 0.306027,-2.53431 0.17167,-1.5384 0.309848,-3.07079 0.267946,-4.62102 0.0082,-1.14589 0.06596,-2.31333 -0.246681,-3.42844 -3.708146,-2.38221 -3.460052,-2.94759 -7.138006,-2.01398 -1.221081,0.26606 -2.593332,0.78877 -3.817096,0.3008 3.664442,2.20324 3.771006,2.528 2.623296,1.4677 -1.614099,-1.49116 -1.258991,-1.84775 -4.628401,-2.99574 -0.440748,0.32545 -0.304837,0.71478 -0.367755,1.20622 -0.0399,0.14236 -0.554747,-0.40244 -0.786688,0.0849 -0.04723,0.0787 -0.456716,0.73593 -0.449146,0.74223 4.330154,3.60017 3.198217,2.8219 2.824347,0.57766 -0.646612,-3.59028 -1.235194,-7.20289 -2.272723,-10.70672 -1.254943,-0.76041 -2.484818,-1.56382 -3.764828,-2.28123 -0.116509,-0.0653 0.189318,0.19375 0.251373,0.31202 0.169042,0.32217 0.294942,0.66523 0.43711,1.00013 0.965954,2.27549 1.898346,4.56564 2.931449,6.81223 1.243502,3.06729 2.490906,6.15254 3.292901,9.37373 0.155987,0.62652 0.233746,1.27008 0.33537,1.90767 0.06861,0.43051 -0.152252,1.0083 0.175252,1.29603 1.039034,0.91282 2.410669,1.35646 3.616002,2.0347 0.388175,-1.78109 0.505523,-3.6318 0.576381,-5.44708 0.0045,-0.24215 0.195832,-0.56716 0.01339,-0.72645 -1.064048,-0.92901 -2.31703,-1.62064 -3.53024,-2.34409 -0.06429,-0.0383 -0.01286,0.1494 -0.02688,0.22293 -0.01723,0.0904 -0.141899,0.21487 -0.0667,0.26796 4.325855,3.05386 4.260672,3.01472 3.247149,1.91698 -1.96795,-2.85815 -1.060638,-3.37896 -5.493766,-5.27848 -0.1636,0.0686 -0.379415,0.0678 -0.490797,0.20589 -0.591582,0.73344 -0.334613,4.8165 -0.686961,5.98033 1.150847,0.73805 2.29848,1.48114 3.452545,2.21415 0.01532,0.01 -0.03122,-0.0247 -0.03375,-0.0427 -0.02093,-0.14862 -0.02687,-0.29901 -0.03546,-0.44885 -0.07632,-1.33131 -0.103102,-2.6652 -0.181956,-3.9964 -0.116689,-2.13715 -0.21272,-4.27898 -0.396769,-6.41172 -0.05214,-0.60419 -0.118314,-1.20718 -0.190442,-1.80932 -0.05755,-0.48042 0.132567,-1.0851 -0.198541,-1.43793 -1.046091,-1.11472 -2.464818,-1.80895 -3.697229,-2.71342 -0.362987,0.61313 -0.259069,1.37533 -0.272606,2.0602 -0.03235,1.63647 -0.0857,3.27264 -0.178511,4.90689 -0.08368,1.26693 -0.133424,2.28944 -0.285039,3.54677 -0.04512,0.37414 -0.435895,0.84165 -0.178016,1.11644 0.915828,0.97589 2.171363,1.57325 3.330291,2.24258 0.420143,0.24265 -1.756216,-2.27105 -0.30581,-1.42305 -0.15639,-2.42251 -0.100341,-4.86051 0.338222,-7.25483 -3.893558,-2.40337 -3.403116,-3.30904 -3.439523,-1.11443 0.02236,1.20744 0.08927,2.41338 0.20174,3.61591 0.252143,2.70469 0.56316,5.43687 1.324165,8.05047 1.282341,0.73369 2.499387,1.5956 3.847018,2.20105 0.116287,0.0522 0.666983,-2.15342 0.641152,-2.33669 -1.062588,-0.64861 -2.102917,-1.33518 -3.187766,-1.94582 -0.115213,-0.0649 0.194778,0.18416 0.26118,0.29849 0.108831,0.18738 0.193197,0.38983 0.258607,0.59642 0.336338,1.06229 0.412152,2.19829 0.666435,3.27855 0.06561,0.39724 0.146984,0.7922 0.196839,1.19173 0.03912,0.31349 -0.166901,0.73599 0.06983,0.9452 4.096311,3.62006 3.469243,3.23683 3.543234,1.1214 0.01228,-0.24524 0.01966,-0.49077 0.03683,-0.73571 0.01778,-0.25351 0.256164,-0.58857 0.06798,-0.75938 -5.730417,-5.20121 -3.479176,-2.93284 -2.97402,-1.43198 1.396609,3.84477 4.722003,3.75311 4.405606,0.46381 0.263187,-3.80098 0.546452,-7.63377 1.453544,-11.34385 0.341107,-0.91131 0.673354,-1.88056 1.367325,-2.60051 0.141639,-0.14694 0.646633,-0.2189 0.496961,-0.35765 -0.857522,-0.79498 -4.269785,-2.8506 -2.925111,-1.93643 0.0084,0.91174 -0.382257,2.16692 -0.977014,2.83979 1.054137,0.68423 2.041567,1.48428 3.162409,2.05268 0.141565,0.0718 -0.03805,-0.31531 -0.04877,-0.47367 -0.0172,-0.25436 -0.03089,-0.50911 -0.03499,-0.76401 -0.02392,-1.48728 0.06465,-2.97532 0.281038,-4.44764 0.386784,-3.43235 0.770607,-6.86949 0.705742,-10.33007 0.0013,-1.60791 -0.111983,-3.19879 -0.360119,-4.79051 -0.904423,-7.32484 -1.670304,-14.66656 -2.639531,-21.98344 -0.639535,-4.52676 -1.308629,-9.04306 -2.162321,-13.5356 -0.334875,-1.76228 -0.829876,-3.68442 -1.021471,-5.494395 -0.06844,-0.646497 -0.05991,-1.298837 -0.08986,-1.948254 0.158573,-2.169684 0.51861,-4.325597 0.531204,-6.502149 0.01466,-1.054142 -0.0061,-2.114534 0.12668,-3.162501 0.13326,-0.661845 0.402508,-1.278959 0.624562,-1.913578 0.07106,-0.761222 0.242874,-1.511271 0.612833,-2.188006 0.476639,-0.84459 1.207376,-1.574096 1.368049,-2.564241 0.139891,-1.745422 -0.654825,-3.477736 -0.950182,-5.172668 -1.121312,-4.143483 -1.351857,-4.201006 -5.673635,-6.579547 -1.950836,-0.576527 -3.958095,0.0949 -5.858653,0.595276 -3.432992,0.96634 -6.811856,2.104564 -10.184664,3.261568 -2.09672,0.644671 -1.451983,0.168424 2.118786,2.607644 0.03589,0.02453 0.922261,-0.404699 0.922322,-0.404723 0.154228,-0.05667 0.310739,-0.106923 0.466108,-0.160382 0.860372,-0.288071 1.608878,-0.7996 2.392024,-1.24995 1.129461,-0.85475 2.384425,-1.508522 3.56625,-2.289709 0.292412,-0.170165 4.180916,-2.532408 4.067635,-2.683627 -0.77588,-1.035721 -1.903783,-1.753409 -2.855672,-2.630114 -1.164293,0.0736 -2.24369,0.485227 -3.352919,0.828828 -3.260185,1.011708 -6.383938,2.390267 -9.550175,3.654814 -0.490688,0.201438 -1.666814,0.110935 -1.472059,0.604314 1.345017,3.407386 2.801768,2.493235 4.907126,1.905238 2.621418,-0.816954 5.242002,-1.663904 7.920681,-2.272797 1.592953,-0.34716 3.207998,-0.604759 4.780764,-1.031518 1.215689,-0.444402 2.277388,-1.08204 3.107608,-2.097219 1.086686,-1.547663 1.469252,-3.454089 1.430128,-5.325646 -1.597631,-3.862469 -5.568331,-3.776771 -8.873164,-3.622549 -3.50682,0.151487 -6.997404,0.521552 -10.496029,0.79455 -1.410107,0.12668 -2.706912,0.214739 -4.105727,0.457766 -3.702688,0.643298 -7.287001,1.892032 -10.9551419,2.683463 -6.666648,1.729763 -13.3218739,3.582204 -20.1041391,4.80352 -3.92688,0.730143 -7.873439,1.384621 -11.736308,2.421179 -1.318075,0.314349 -1.421842,0.3658 -2.626895,0.569699 -0.270026,0.04569 -1.003794,-0.07811 -0.813025,0.11839 2.993824,3.083647 2.073889,2.80733 3.447169,1.959168 1.152322,-0.735758 2.279013,-1.511117 3.275134,-2.453881 1.250146,-1.121616 2.633065,-2.054579 4.11765,-2.841654 1.469234,-0.706228 2.923561,-1.458236 4.480666,-1.957621 0.198506,-0.05848 0.7422883,-0.02954 0.595519,-0.175428 -2.996534,-2.978485 -2.616769,-2.609314 -4.900253,-1.05875 -1.40948,0.928738 -2.867901,1.780923 -4.215238,2.802142 -1.750381,1.47362 -3.694526,2.705936 -5.371653,4.257765 -0.217649,0.451382 -0.226227,0.990669 -0.122688,1.480074 4.366181,2.568474 3.273066,2.729849 7.196474,0.677259 4.184057,-2.281531 8.2246653,-4.813786 12.4189699,-7.069936 -0.8395705,-0.799417 -1.5978716,-1.693982 -2.5187142,-2.398252 -0.024765,-0.01895 -0.06907,0.276264 -0.40191,0.815333 -0.4360307,0.706198 -0.9795748,1.305464 -1.677752,1.764632 -2.4691077,1.448426 -5.1971307,2.352756 -7.8871577,3.300817 -1.955371,0.710838 -3.915267,1.467766 -5.919285,2.032863 -0.62598,0.176514 -1.259075,0.331284 -1.898417,0.450651 -0.316886,0.05917 -1.177853,-0.157051 -0.963454,0.08367 0.736645,0.8271 1.818529,1.264877 2.727796,1.897314 -0.643054,-0.842196 -0.248578,-2.035943 -0.328647,-3.028265 -4.052178,-2.424337 -3.493071,-3.352437 -3.565302,-1.272686 -0.01812,0.506476 -0.05452,1.01341 -0.03385,1.52027 0.145762,1.928055 3.039703,3.814125 4.533858,2.381998 1.44082,-1.130284 2.87986,-2.35576 3.686143,-4.037901 0.314733,-0.618893 0.557477,-1.120345 0.914458,-1.720536 0.156943,-0.263864 0.692706,-0.537981 0.497613,-0.775033 -4.29401,-5.217546 -3.260916,-3.37771 -3.022285,-1.953223 1.154681,0.757511 2.268638,1.581074 3.464044,2.272532 0.650248,0.376123 4.434525,-9.015861 -2.750852,-2.845862 0.783275,1.442503 0.847376,5.551553 4.413044,3.413473 1.215707,-1.015775 1.714812,-2.638261 2.693143,-3.849016 0.490395,-0.600013 0.979376,-1.336061 1.695101,-1.71662 0.230793,-0.122716 0.9492,0.02573 0.767262,-0.161952 -4.25536,-4.389648 -2.464054,-1.748477 -2.18195,-0.277283 0.167376,1.520506 0.347417,3.043801 0.456666,4.569848 0.0401,0.560148 0.05042,1.122123 0.08813,1.682436 0.02958,0.43958 -0.196657,1.004128 0.11371,1.316823 1.036618,1.044392 2.4354653,1.652222 3.6531968,2.478334 1.5292917,-0.135374 2.5760389,-1.417805 3.6639076,-2.363724 0.8128503,-0.716263 1.5740407,-1.491393 2.4737298,-2.096939 0.8192505,-0.457082 1.86218775,-0.98794 2.81165297,-0.824876 0.26707041,0.08112 0.53385508,0.173584 0.80606633,0.236371 0.1046454,0.02414 0.4065006,0.119521 0.3163041,0.06123 -2.9945991,-1.935386 -4.4199518,-1.910532 -3.0209887,-1.908929 0.3383571,0.828658 0.3741156,1.811334 0.4114192,2.688597 0.10655298,2.505767 0.018256,5.01956 0.12354453,7.525611 0.0172508,0.815718 0.0287867,1.63158 0.0517578,2.447158 0.0127,0.451064 -0.28286873,1.053803 0.0552741,1.352605 C 1.9163976,81.481339 2.591228,81.802921 4.1537566,79.868 4.5604238,79.360772 4.9398231,78.831211 5.3641592,78.338668 5.487619,78.195362 5.9103967,78.067116 5.7692071,77.94124 c -4.609113,-4.109236 -2.95325,-2.130554 -2.4390058,-0.286551 1.1244421,3.823332 2.4145081,7.636393 4.5758443,11.017323 1.3504122,0.898525 2.6205154,1.931385 4.0512394,2.695581 0.211005,0.112704 0.557448,0.03429 0.700111,-0.157729 0.196876,-0.264988 0.09873,-0.652822 0.144947,-0.979689 0.261368,-1.848781 0.483634,-3.702751 0.717883,-5.555069 0.277014,-2.288212 0.518552,-4.579049 0.764625,-6.870743 0.04855,-0.452109 0.422447,-1.00331 0.136964,-1.357228 -3.862869,-4.788847 -3.695253,-4.091828 -3.402788,-2.581007 0.152866,1.920401 0.24247,3.846049 0.4113,5.765429 0.372841,5.07446 0.396097,10.153989 0.133874,15.237026 -0.08179,1.580039 -0.111199,2.6542 -0.281302,4.194892 -0.0329,0.298011 -0.364935,0.68484 -0.14427,0.887815 0.964005,0.88672 2.222252,1.3874 3.34717,2.05833 0.276389,0.16485 -1.858057,-1.35797 -0.345839,-0.90138 -0.307319,-2.400823 -0.387419,-4.807033 -0.534604,-7.21621 -0.359524,-2.24455 -2.854921,-2.66994 -4.7360948,-3.475178 1.0336266,0.62284 2.0755158,1.23217 3.1008818,1.868522 0.08382,0.05202 -0.23509,-0.0061 -0.280775,-0.09354 -0.126754,-0.242584 0.08034,-0.6622 -0.05133,-0.905608 -0.07836,-1.07024 -0.193434,-2.136675 -0.424744,-3.186319 -0.192127,-0.305988 -0.305427,-0.37978 -0.24221,-0.765003 0.02204,-0.387998 0.08084,-0.718066 0.380855,-0.992243 0.381965,-0.388869 0.606485,-0.491477 1.128469,-0.41188 0.980437,-0.193056 1.654823,-1.050358 2.416876,-1.627404 0.497758,-0.468334 1.20193,-1.09574 1.094263,-1.20269 -2.480389,-2.463869 -2.756611,-2.716937 -4.901263,-1.861796 -1.077394,0.453408 -2.1014952,0.960792 -3.1413633,1.493993 -0.3429556,0.175853 -1.2404037,0.188384 -1.0353516,0.514721 1.435481,2.284534 3.9689539,2.130171 2.5451408,2.193811 0.1996255,-0.397214 0.4824651,-0.718465 0.7764591,-1.051785 0.09993,-0.113292 0.418928,-0.229277 0.308309,-0.332158 -2.8784473,-2.677088 -2.246363,-3.230861 -3.2734675,-2.214705 -0.3285543,0.366683 -0.6904567,0.796549 -1.141357,1.018111 -0.1145275,0.05628 -0.4744587,0.0038 -0.3738589,0.08235 3.215685,2.509515 3.1515844,3.242466 3.0835124,1.688695 -0.084606,-1.914776 -0.6117934,-5.282118 -3.9620983,-4.028032 -0.592291,0.329975 -0.8702305,0.997683 -1.3534443,1.457058 -0.5224516,0.568978 -1.0476495,1.175287 -1.6818398,1.625576 -0.1784985,0.126738 -0.7282762,0.166523 -0.5730293,0.320865 3.2316023,3.212767 3.115429,3.229057 2.9960649,1.669434 C 4.8259623,83.52597 5.4757551,81.403861 6.2307331,79.312388 6.2149904,79.118916 6.336622,78.85123 6.1834653,78.731974 5.0599016,77.857119 3.8030381,77.164958 2.5662989,76.4591 2.382059,76.353947 1.7676409,76.47101 1.9434433,76.589738 c 1.0580079,0.714505 2.2778085,1.175753 3.3095194,1.927733 0.1056905,0.07703 -0.1676558,0.200776 -0.2514838,0.301165 C 6.2673964,77.890599 5.5046,78.569999 2.1328876,76.386281 2.0739836,76.348131 2.1228866,76.530625 2.0893506,76.592265 1.88437,76.968912 1.2696,77.762258 1.0728903,78.050664 0.82213672,78.41831 0.58799106,78.797019 0.34554277,79.170195 c -0.25785762,0.409488 -0.52144612,0.815422 -0.77357022,1.228466 -0.23525956,0.385416 -0.92204905,0.780248 -0.68842995,1.166662 2.4026786,3.974121 3.1889541,3.01258 5.5365067,1.197054 1.6324818,-1.422067 3.2094858,-2.914563 4.8867536,-4.284305 0.4963319,-0.405329 0.9962911,-0.808376 1.5245981,-1.171046 0.246488,-0.169206 0.975166,-0.182875 0.792678,-0.419701 -0.732274,-0.950309 -1.8865292,-1.48265 -2.8297952,-2.223976 0.011324,1.234302 -2.2935194,4.122126 -2.8084594,5.39636 -0.8812689,2.052182 -0.7578249,0.994992 3.0473067,3.203731 0.069281,0.04022 0.7229978,-1.194115 0.8121703,-1.33925 0.1438778,-0.234169 0.2981716,-0.461777 0.4472596,-0.692666 0.533667,-0.700791 1.037039,-1.299665 1.796875,-1.770607 0.23889,-0.148061 0.479751,-0.305655 0.748311,-0.388517 0.206787,-0.0638 0.815525,0.09454 0.647842,-0.04226 -0.877339,-0.715748 -1.926126,-1.190847 -2.889189,-1.78627 0.955445,1.407064 1.279684,3.187708 2.240894,4.609525 z" /><path
       style="fill:#000000;fill-opacity:1;stroke:none;stroke-width:1.349"
       id="path6"
       d="m -56.379499,68.939105 c 2.211896,-1.207335 4.336748,-2.562757 6.575872,-3.723929 0.79715,-0.701988 2.009818,-0.948994 2.72075,-1.741817 1.132113,-1.762492 -0.899154,-1.493461 -3.288596,-2.941865 -2.269704,0.617292 -4.551963,1.458742 -6.55616,2.707597 -0.111811,0.12 -0.458518,0.251599 -0.335429,0.36 1.066885,0.939585 2.203191,1.858132 3.504377,2.430831 0.394719,0.17373 0.833885,-0.220616 1.248619,-0.338864 2.421057,-0.69029 4.762852,-1.575056 7.123608,-2.445754 0.392319,-0.132843 3.519281,-1.194898 4.130251,-1.390948 0.388575,-0.124687 0.780778,-0.237852 1.172655,-0.351747 0.125894,-0.03659 0.488111,-0.0248 0.380479,-0.09966 -3.494887,-2.430709 -2.372794,-2.60699 -4.49285,-1.717495 -4.113356,1.32776 -8.223734,2.669198 -12.34231,3.983985 -1.960189,0.846642 -6.799453,1.930436 -8.179959,3.665802 -0.904922,4.542228 5.882053,1.984054 7.386839,1.452164 1.366168,-0.333865 2.692712,-1.470653 4.150503,-1.29901 0.206197,-0.03115 0.319132,0.273054 0.523888,0.222234 0.690822,-0.171458 1.478227,-0.659902 2.119722,-0.939592 1.57897,-0.594953 3.080237,-1.373086 4.646785,-1.991569 0.773557,-0.178022 1.407652,-0.612205 2.081821,-1.005203 0.637823,-0.572786 1.739929,-0.69196 2.27072,-1.368665 -1.208336,-0.685589 -2.326018,-1.564083 -3.625006,-2.056769 -0.297063,-0.112672 -0.591074,0.233325 -0.888576,0.344836 -0.616062,0.230914 -1.233313,0.458695 -1.852026,0.682408 -3.339457,1.207474 -6.583685,2.474013 -9.832853,3.913367 -4.933518,2.514713 -10.212472,4.670385 -14.597223,8.12089 -0.153324,0.206407 -0.65427,0.450821 -0.459968,0.619221 1.142667,0.990346 2.479381,1.782175 3.882136,2.346758 0.418158,0.168302 0.889844,-0.148092 1.329084,-0.249335 0.807895,-0.186216 1.609778,-0.398052 2.410603,-0.612648 2.267484,-0.607618 3.614481,-1.02272 5.881042,-1.693468 3.446491,-0.901039 6.727391,-2.299875 10.084361,-3.466431 1.239874,-0.472403 2.236073,-1.311735 3.311188,-2.06148 1.685634,-1.424225 2.437175,-0.292042 -2.64492,-2.82639 -0.160205,-0.07989 -0.345795,0.09307 -0.520068,0.13404 -0.214159,0.05034 -0.430006,0.09322 -0.645009,0.139827 -2.206995,0.435768 -4.332634,1.226498 -6.481865,1.887548 -1.157777,0.586737 -2.387399,0.17458 -3.58956,0.307079 -2.641351,0.479198 -5.267688,1.037968 -7.889457,1.614659 -6.397413,1.227913 -12.819671,2.29434 -19.166012,3.77199 -5.468704,1.350492 -10.87882,2.926472 -16.148957,4.918401 -2.3091,0.746913 -4.36054,1.967489 -6.38661,3.274366 -3.02643,1.803477 -5.89155,3.857456 -8.82712,5.801342 -0.18459,0.119129 -1.69605,1.04626 -1.94983,1.360337 -0.0954,0.11803 -0.21575,0.396075 -0.0736,0.449236 1.65892,0.620485 3.3474,1.33387 5.11558,1.436608 1.02396,0.0595 1.94934,-0.639064 2.92028,-0.969693 1.26577,-0.431027 2.52646,-0.876821 3.78969,-1.31523 8.469509,-2.846663 16.960636,-5.662713 25.528884,-8.201552 -3.501035,-1.119343 2.379435,-0.09721 1.842003,-0.426392 -1.19394,-0.7313 -2.357726,-1.613426 -3.713581,-1.962642 -0.499559,-0.128667 -0.933619,0.43955 -1.407371,0.643684 -1.874647,0.80777 -3.039507,1.242015 -4.981543,2.001178 -4.638583,1.913994 -9.438832,3.381862 -14.170902,5.035397 -1.81676,0.479943 -3.46653,1.403781 -5.2131,2.061138 -1.23026,0.418248 -2.39062,1.090401 -3.57146,1.650606 -3.72869,1.775749 -7.56446,3.316939 -11.2978,5.08481 -6.8638,3.477199 -13.28785,7.740844 -19.61926,12.093884 -3.79964,2.69832 -7.52193,5.50572 -11.17481,8.3994 -1.46306,1.41299 -1.16341,1.44733 3.08542,2.62986 0.40236,0.11198 0.7139,-0.43368 1.07038,-0.65129 2.24261,-1.36894 0.94993,-0.60233 3.32384,-1.97487 4.29645,-2.94072 8.62578,-5.83131 13.1989,-8.32572 3.86489,-2.06445 7.84802,-3.89341 11.81146,-5.75765 2.47281,-1.069589 4.80759,-2.416072 7.11932,-3.791175 1.86485,-1.035217 3.74497,-2.039969 5.67364,-2.951641 1.28788,-0.672351 2.59904,-1.292101 3.87479,-1.987651 1.54034,0.728427 -2.6821,-1.275604 -4.0931,-1.233053 -0.78467,0.02365 -1.21195,0.998754 -1.83684,1.473927 -2.88863,2.19655 -5.87959,4.230434 -8.91505,6.215753 -4.91835,3.23437 -9.94813,6.29289 -15.03918,9.24578 -2.94557,1.75352 -6.07867,3.1617 -8.95878,5.02462 -1.56495,1.01834 -3.10604,2.07152 -4.6837,3.07073 -0.96619,1.25447 -0.91667,1.05195 3.46376,2.31431 0.44899,0.12939 0.80393,-0.47659 1.20091,-0.72305 2.36614,-1.46898 4.72942,-2.93488 7.11547,-4.37239 8.19507,-4.90728 16.40243,-9.79375 24.47982,-14.89388 4.50325,-2.976639 9.14408,-5.764789 13.57654,-8.847325 2.169462,-1.629365 2.94468,-2.195709 -2.65917,-3.214974 -0.64968,-0.118168 -1.22294,0.499245 -1.82592,0.768443 -1.06202,0.474128 -2.11228,0.974159 -3.16842,1.461241 -13.08531,5.79393 -26.45271,10.915816 -39.59261,16.582595 -9.58554,4.31673 -19.23958,8.58188 -28.39718,13.76785 -0.77774,0.65395 -3.85111,1.80578 -3.70479,3.10931 1.22132,0.66167 2.3387,1.56893 3.66395,1.98502 0.3513,0.1103 0.6443,-0.35666 0.96894,-0.53042 1.88651,-1.00972 3.7795,-2.01142 5.71442,-2.92311 3.20292,-1.53889 6.47612,-2.92859 9.84035,-4.07372 0.7061,-0.2643 1.44275,-0.41983 2.19105,-0.48635 -1.16505,-0.72297 -2.26826,-1.55673 -3.49516,-2.16891 -0.13609,-0.0679 -0.2633,0.15232 -0.39542,0.22765 -0.70656,0.40287 -1.4315,0.75415 -2.15313,1.12916 -1.01359,0.42365 -1.86913,1.05062 -2.74432,1.69107 -1.93899,1.35162 0.82589,1.60194 3.03223,2.76166 3.77293,-1.577 7.60963,-3.01267 11.39963,-4.55826 12.52906,-5.45946 24.86133,-11.35597 37.15019,-17.332379 6.52885,-3.401163 13.36889,-6.210157 19.834525,-9.734886 1.897451,-1.197335 1.484752,-0.84858 -2.780977,-2.834725 -0.23581,-0.109794 -2.807748,0.313473 -3.202258,0.356995 -2.29094,0.285466 -4.5686,0.662191 -6.8671,0.898178 -1.14169,0.01857 -2.31197,0.272719 -3.4563,0.184698 -1.03899,-0.07992 -5.4029,-2.810288 2.80056,1.653524 -0.33964,-0.757709 3.83395,-3.798652 4.41937,-4.223168 4.864561,-3.205848 10.290117,-5.506244 15.621022,-7.821298 4.621839,-1.97163 9.233831,-3.970298 13.903962,-5.826035 1.699279,-0.561033 3.280619,-1.41519 4.947888,-2.055695 2.076498,-0.814822 4.093726,-1.761262 6.115873,-2.700897 1.248651,-0.623569 2.652202,-0.984706 3.645358,-2.009189 1.230545,-2.253192 -1.622087,-2.613248 -3.580059,-3.761028 -1.534237,-0.244643 -3.083388,-0.323987 -4.634415,-0.340176 -1.788282,-0.178179 -3.566758,-0.43234 -5.355582,-0.605856 0.193402,0.366299 -1.5485,-0.570793 -1.186429,-0.369587 4.420698,2.456631 3.718282,2.695525 2.906972,1.366137 -0.166402,-0.05934 -0.696145,-1.141502 -0.504907,-0.776623 0.911058,-0.149493 1.83842,-0.144971 2.758956,-0.152611 1.160899,-0.07881 2.240978,0.277722 3.399327,0.229761 0.636521,-0.110134 1.355635,-0.0027 1.925788,-0.331135 0.349078,-0.28009 0.679186,-0.45808 1.110486,-0.561002 0.538749,-0.04514 1.07991,-0.04233 1.62012,-0.04239 0.470538,0.0015 0.941057,0.0032 1.411563,0.0094 0.32372,0.002 0.647493,-6.87e-4 0.971237,-8.46e-4 0.06324,1.74e-4 0.135065,-0.03131 0.189704,5.29e-4 0.288433,0.168035 -0.150304,0.212044 0.295444,0.284318 0.863952,0.140082 1.782123,0.137452 2.655888,0.235012 0.124177,0.02971 0.483486,0.152296 0.372531,0.08912 -1.327587,-0.755871 -2.607607,-1.628546 -4.034552,-2.174123 -0.388303,-0.148464 -0.824842,0.104529 -1.237031,0.158587 -0.602966,0.07908 -1.205314,0.162842 -1.808424,0.240818 -1.765176,0.228218 -1.941766,0.243396 -3.679679,0.445895 -2.471227,0.348801 -4.926367,0.802103 -7.402799,1.113999 -2.131464,0.232939 -4.168198,1.061201 -6.214496,1.681097 -4.929851,1.531184 -9.723313,3.443666 -14.482672,5.432438 -4.476052,1.729209 -8.404024,3.728206 -12.169254,6.696749 -1.46854,0.979104 -2.16269,2.632705 -3.3022,3.895614 -0.39388,0.436539 -0.8388,0.824158 -1.2582,1.236236 -3.93642,3.416607 -8.27556,6.303719 -12.15444,9.798257 -0.0964,0.09318 -1.77979,1.656119 -1.94034,2.009116 -0.0817,0.179594 -0.0692,0.484502 0.10166,0.583096 1.35754,0.783215 2.7568,1.578515 4.28059,1.945175 0.56995,0.137144 1.12645,-0.326118 1.68303,-0.510175 0.68778,-0.227449 1.36606,-0.482685 2.04909,-0.72403 6.89696,-2.572271 13.48783,-5.876787 20.187762,-8.910269 4.797554,-1.992038 9.37609,-4.460441 14.153835,-6.495159 5.016246,-2.099902 10.079341,-4.064121 15.230319,-5.807731 1.555578,-0.633372 3.173105,-1.087757 4.760121,-1.630056 0.161255,-0.0551 0.627684,-0.08282 0.481814,-0.170917 -1.1655,-0.703889 -2.456325,-1.175531 -3.684487,-1.763296 -1.893075,1.07577 -4.034994,1.57072 -6.0091,2.455003 -0.767077,0.400284 -0.437695,0.186578 -1.00766,0.609988 0,0 3.349958,2.12273 3.349958,2.12273 v 0 c 0.514175,-0.375552 0.210397,-0.178729 0.932265,-0.556848 2.023694,-0.892643 4.214362,-1.414186 6.117936,-2.572093 -0.994629,-0.836429 -1.907963,-1.78039 -2.983886,-2.509285 -0.135932,-0.09209 -0.305924,0.119398 -0.459975,0.176204 -0.23898,0.08812 -0.47837,0.175205 -0.719051,0.258561 -1.325639,0.459111 -2.661068,0.892188 -3.959124,1.427629 -5.125752,1.831391 -10.193446,3.808108 -15.247144,5.829168 -4.742812,2.051889 -9.266726,4.558268 -14.016556,6.59616 -6.703547,3.066037 -13.354267,6.302296 -20.300287,8.790966 -0.68725,0.227865 -1.36581,0.483826 -2.06175,0.683594 -0.55275,0.158668 -1.8769,-0.149868 -1.68042,0.390604 0.3647,1.00325 1.7149,1.27363 2.53417,1.957959 0.10572,0.08831 -0.42381,-0.02861 -0.38118,-0.159591 0.10408,-0.319752 1.82348,-1.977229 1.85215,-2.006031 1.85003,-1.712116 3.7578,-3.333724 5.77202,-4.853236 1.81436,-1.36874 3.07448,-2.145324 4.84449,-3.56407 0.54178,-0.434266 1.04169,-0.918332 1.56253,-1.377495 0.44567,-0.419904 0.91612,-0.814978 1.33701,-1.259708 1.14603,-1.210926 1.78367,-2.868453 3.21208,-3.83672 3.609593,-2.905448 7.710333,-4.992751 12.028274,-6.661911 4.765445,-1.987428 9.585704,-3.849646 14.528967,-5.352176 2.061244,-0.601405 4.10868,-1.353709 6.254723,-1.579985 2.448312,-0.3565 4.877938,-0.829878 7.330776,-1.156896 1.841024,-0.222183 3.681807,-0.445451 5.523114,-0.665191 0.425146,-0.05074 1.438021,0.239015 1.274876,-0.156849 -0.980853,-2.380028 -1.384543,-2.352524 -2.72147,-2.518692 -0.978606,-0.09993 -1.868281,-0.241537 -2.79981,-0.508676 -0.02692,-0.0077 -0.363214,-0.0052 -0.403929,-0.0051 -0.324908,-3.7e-4 -0.649816,-0.0027 -0.974706,-0.004 -0.467648,0.0016 -0.935297,-8.2e-4 -1.402935,0.0017 -0.564679,0.0054 -1.140229,-0.01131 -1.691968,0.126487 -0.418991,0.141049 -0.760428,0.384041 -1.135911,0.609513 -0.58923,0.160368 -1.215787,0.15299 -1.820072,0.211736 -1.138518,-0.0043 -2.24591,-0.345602 -3.39212,-0.22837 -0.963861,0.01417 -1.971608,-0.02888 -2.891536,0.298257 -0.118443,0.122873 -0.272415,0.219451 -0.355332,0.368621 -0.103468,0.186142 0.432369,0.88921 0.539686,1.009107 0.122256,0.129568 0.129882,0.356707 0.277143,0.456948 1.873967,1.275605 2.860411,2.341269 4.828612,2.471089 1.790041,0.169198 3.569054,0.436804 5.362199,0.573196 1.525828,0.04125 3.082711,0.06604 4.559006,0.491177 -0.987679,-0.611153 -1.978252,-1.217654 -2.963039,-1.833458 -0.07258,-0.04539 0.183774,0.04749 0.226012,0.121945 0.130127,0.229394 -0.08807,0.720005 -0.179104,0.930613 -0.9471,0.972286 -2.337663,1.294513 -3.499647,1.932289 -2.020821,0.945241 -4.060626,1.838135 -6.135587,2.658417 -1.653921,0.662122 -3.243122,1.479032 -4.922625,2.080322 -4.593551,1.955107 -9.158558,3.97604 -13.750044,5.936002 -3.181964,1.354494 -6.307431,2.769086 -9.415823,4.284675 -1.48624,0.724665 -3.53738,1.697527 -4.98385,2.559992 -0.48594,0.289743 -0.93218,0.641406 -1.39827,0.962107 -1.15748,0.843026 -4.6688,3.271335 -4.82681,4.764858 1.20299,0.716893 2.37497,1.488614 3.60899,2.150684 0.5024,0.269544 3.24404,-0.231074 3.9155,-0.188447 2.29369,-0.258956 4.57091,-0.636881 6.863306,-0.90197 0.616881,-0.06779 1.635493,-0.185563 2.249077,-0.228896 0.320112,-0.0226 1.172946,0.200646 0.961851,-0.04106 -2.646204,-3.029884 -2.123472,-2.714826 -3.696123,-1.64882 -6.251071,3.722923 -12.999081,6.561096 -19.408571,9.985701 -12.31323,6.016815 -24.71084,11.871105 -37.35508,17.165385 -3.79729,1.49576 -7.64056,3.05226 -11.53834,4.22635 1.07773,0.62794 2.19118,1.19823 3.23318,1.88382 0.0968,0.0637 -0.34985,0.20854 -0.24164,0.25008 0.1095,0.042 0.41627,-0.4262 0.52662,-0.3926 0.84367,-0.63927 1.70221,-1.22369 2.67956,-1.65288 0.7336,-0.36451 1.4528,-0.7444 2.1797,-1.11988 0.12844,-0.0663 0.49578,-0.09 0.39038,-0.18893 -0.94136,-0.88379 -2.05718,-1.56107 -3.08577,-2.34161 -0.74461,0.11307 -1.47231,0.31411 -2.17386,0.58959 -3.32937,1.22675 -6.57702,2.65472 -9.79445,4.14904 -1.5686,0.72269 -3.0671,1.53223 -4.61365,2.29704 -0.38799,0.19188 -0.7651,0.40728 -1.16317,0.57728 -0.28239,0.1206 -1.09816,0.0832 -0.8735,0.29253 0.90937,0.84732 2.14327,1.25938 3.2149,1.88907 -0.0826,0.0403 -0.15588,0.11995 -0.24777,0.12088 -0.15709,0.002 0.12771,-0.29758 0.24395,-0.40326 0.95823,-0.87119 2.13253,-1.48863 3.18297,-2.22817 8.97337,-5.35057 18.52428,-9.66049 28.03193,-13.95638 13.21263,-5.66442 26.60423,-10.887684 39.88215,-16.394356 1.08554,-0.460375 2.16152,-0.944004 3.25664,-1.381128 0.61494,-0.245457 2.052647,-0.02894 1.87146,-0.665784 -1.21249,-4.261742 -2.63182,-2.049034 -3.85149,-1.114097 -4.3558,3.133825 -8.93998,5.953061 -13.39351,8.943337 -8.02747,5.190238 -16.25562,10.048818 -24.5171,14.855038 -2.27048,1.32355 -3.37696,1.96243 -5.54928,3.24933 -0.56833,0.33669 -1.12152,0.69968 -1.70118,1.01646 -0.38701,0.21151 -1.44303,0.20154 -1.19563,0.56665 2.38138,3.51445 2.48014,3.26593 3.11932,2.10993 1.54777,-1.02956 3.08668,-2.07209 4.63348,-3.10286 2.86251,-1.86256 5.97837,-3.27438 8.89849,-5.042 5.05942,-2.97619 10.01798,-6.12024 14.92502,-9.34104 3.06622,-1.985535 6.08703,-4.022773 9.04062,-6.17378 0.65214,-0.474933 2.00443,-0.658374 1.92909,-1.461601 -0.38099,-4.061574 -1.29648,-3.559024 -2.5465,-2.976975 -1.25576,0.703702 -2.55768,1.317133 -3.82992,1.989881 -1.92689,0.937474 -3.82418,1.935485 -5.69283,2.984227 -2.275,1.396381 -4.61302,2.684749 -7.04262,3.794789 -3.94538,1.891769 -7.92991,3.707239 -11.76895,5.811899 -4.57498,2.51454 -8.90328,5.41639 -13.2493,8.30257 -1.12513,0.64436 -2.23766,1.31097 -3.3717,1.93951 -0.36213,0.2007 -1.3392,0.23304 -1.10224,0.57254 0.72286,1.0357 2.00818,1.53544 3.06073,2.23353 0.20767,0.13774 -0.11278,-1.69445 0.48088,-0.5724 3.53529,-2.98392 7.20199,-5.81172 10.97391,-8.49024 6.30303,-4.3873 12.75074,-8.611017 19.66022,-11.992966 3.76661,-1.752957 7.62926,-3.284712 11.40577,-5.014444 1.18602,-0.557456 2.35591,-1.18132 3.59459,-1.607474 1.69552,-0.725765 3.33848,-1.585153 5.11867,-2.104726 4.704696,-1.688316 9.470101,-3.212684 14.10499,-5.092808 1.369915,-0.522772 3.670845,-1.392357 5.075989,-1.958901 0.50446,-0.203396 1.72389,-0.137657 1.503222,-0.634804 -1.50458,-3.389709 -2.588241,-2.528099 -4.598281,-1.911144 -8.482576,2.747095 -16.93452,5.590032 -25.43753,8.275384 -1.28153,0.423095 -2.55857,0.860075 -3.8446,1.269288 -0.99552,0.316772 -2.61328,-0.06217 -2.99953,0.908497 -0.36692,0.92207 1.1313,1.631934 1.6526,2.476378 0.0361,0.05848 -0.22557,-0.04164 -0.18276,-0.09539 0.19511,-0.244914 0.47589,-0.408241 0.72988,-0.591386 0.37604,-0.271147 0.77212,-0.513355 1.15818,-0.770032 2.92262,-1.960632 5.79092,-4.006959 8.82903,-5.789631 2.0177,-1.257732 4.08109,-2.410725 6.323914,-3.224409 5.206526,-2.050243 10.582396,-3.598407 16.010067,-4.94865 6.379501,-1.470731 12.825907,-2.550046 19.270583,-3.69008 2.639827,-0.530746 5.265062,-1.156295 7.936542,-1.510676 1.231159,-0.0077 2.445427,0.141148 3.610784,-0.409588 2.13972,-0.6843 4.273354,-1.442691 6.489624,-1.837732 0.218839,-0.04619 0.437448,-0.09346 0.656515,-0.138562 0.173101,-0.03564 0.646899,0.01933 0.51997,-0.103643 -2.639854,-2.557627 -2.299912,-2.945867 -3.933854,-1.576124 -1.041365,0.734253 -2.051021,1.509142 -3.248681,1.978148 -3.286614,1.239829 -6.520378,2.640478 -9.924335,3.546274 -1.986939,0.578509 -3.898713,1.160425 -5.909691,1.64837 -0.816404,0.198093 -1.635522,0.390358 -2.463959,0.529799 -0.424172,0.07139 -1.517277,-0.26148 -1.28642,0.10146 2.095185,3.29394 2.181513,2.768205 3.023589,1.504172 4.243898,-3.529005 9.489422,-5.671614 14.362742,-8.151017 3.289531,-1.411564 6.554468,-2.670915 9.948921,-3.801902 0.63977,-0.213163 1.27912,-0.427602 1.919354,-0.639372 0.307006,-0.101549 1.133681,-0.05583 0.922353,-0.300583 -0.830003,-0.961289 -2.065004,-1.479083 -3.097506,-2.218625 -0.689698,0.45281 -1.4649,0.804191 -2.175886,1.238419 -0.647597,0.390828 -1.288129,0.767015 -2.024351,0.973103 -1.548148,0.654041 -3.054191,1.405308 -4.623853,2.012682 -0.907788,0.37265 -1.636186,0.79346 -2.594811,0.551216 -1.480814,0.113426 -2.764888,1.047696 -4.168989,1.453827 -1.033005,0.349366 -1.365949,0.491575 -2.423859,0.733549 -0.344939,0.0789 -1.278556,-0.07186 -1.04386,0.192958 0.744947,0.840542 3.940561,2.614556 2.723044,1.837636 1.128511,-1.547255 6.20268,-2.844202 7.89542,-3.568103 4.151577,-1.327501 8.318328,-2.605844 12.470622,-3.928456 2.082808,-0.774515 1.635588,-0.290578 -2.048835,-2.696552 -0.09808,-0.06405 -0.21485,0.09385 -0.325146,0.133283 -0.376032,0.134454 -0.756423,0.256428 -1.133391,0.388234 -0.593479,0.20751 -1.184878,0.42093 -1.777915,0.629699 -0.766334,0.269776 -1.533462,0.53729 -2.300192,0.805935 -2.341229,0.856464 -4.720905,1.859347 -7.184401,2.32043 -0.374417,0.07008 -1.383747,-0.214259 -1.140055,0.07851 2.432616,2.922503 2.228236,2.959146 3.234576,1.843507 1.901262,-1.213995 4.166775,-2.173385 6.408563,-2.427948 -5.280737,-3.531549 -2.37104,-2.956799 -3.274703,-1.541362 -0.734264,0.706808 -1.819746,1.01506 -2.600783,1.666681 -2.218018,1.202583 -4.336796,2.581488 -6.602018,3.695488 z" /><path
       style="fill:#000000;fill-opacity:1;stroke:none;stroke-width:1.349"
       id="path7"
       d="m -77.885136,76.43194 c -4.429937,1.110727 -8.855353,2.232711 -13.273836,3.390945 -1.546167,0.40286 -3.045397,0.959343 -4.508707,1.596419 -0.104902,0.04567 -1.132284,0.420561 -1.258993,0.744797 -0.0613,0.156869 0.03941,0.334529 0.05911,0.50179 1.605145,0.599591 3.137911,1.449616 4.815435,1.798768 0.685872,0.142753 1.380789,-0.23816 2.069645,-0.365742 2.620029,-0.485246 5.121725,-1.164106 7.652478,-1.987642 2.482117,-0.883696 5.023297,-1.57511 7.529928,-2.386121 0.822835,-0.317074 1.676725,-0.539732 2.555337,-0.621078 0.502487,-0.04652 0.648645,0.0094 0.639197,0.0033 -1.138912,-0.74486 -2.311734,-1.436539 -3.4676,-2.154806 -2.569869,0.621385 -5.115436,1.336977 -7.675147,2.002049 -3.131934,0.755092 -6.225355,1.668021 -9.302269,2.620981 -0.165404,0.05531 -0.330805,0.110615 -0.49621,0.16592 -0.02753,0.01998 -0.111622,0.04218 -0.0826,0.05991 1.232042,0.752652 2.398487,1.6545 3.744356,2.177044 0.363228,0.141026 0.754997,-0.19323 1.134179,-0.282919 1.384996,-0.327596 2.451473,-0.554506 3.850471,-0.860687 3.179826,-0.63215 6.260864,-1.65463 9.38816,-2.491724 -1.371814,-0.605194 1.016521,-0.03785 0.784852,-0.172283 -1.204241,-0.698767 -2.361046,-1.512192 -3.660973,-2.010849 -0.04248,-0.0163 -3.039169,1.04123 -3.248703,1.108162 -2.009351,0.73501 -4.112966,1.170408 -6.084337,2.005356 0.262215,-0.06988 -0.772131,0.330187 -0.566925,0.461656 1.257017,0.805339 2.510255,1.673841 3.919098,2.167631 0.408869,0.143306 0.835816,-0.229066 1.250103,-0.355862 1.347505,-0.412417 2.685862,-0.854171 4.030713,-1.275146 3.478377,-1.192038 7.03493,-2.152862 10.507697,-3.360174 0.08242,-0.03781 0.324461,-0.06589 0.24725,-0.113443 -1.208926,-0.744532 -2.404414,-1.556922 -3.7403,-2.037792 -0.29617,-0.106611 -0.573038,0.261062 -0.86436,0.380278 -1.508535,0.617334 -3.051511,1.150657 -4.587033,1.695524 -1.220619,0.478591 -2.515077,0.742974 -3.751321,1.170829 -0.59272,0.205134 -1.131681,0.510738 -1.734465,0.686599 -0.04872,0.01373 -0.188455,0.01339 -0.146146,0.04116 3.901903,2.561754 2.683645,2.49813 5.633268,1.751222 2.059368,-0.442582 2.889493,-0.508654 -2.39612,-2.526938 -0.39515,-0.150884 -0.805619,0.258123 -1.209365,0.384205 -0.595127,0.185843 -1.19149,0.367712 -1.787234,0.551568 -1.75305,0.523942 -3.49921,1.053323 -5.293445,1.417606 -0.369504,0.07502 -1.394092,-0.04654 -1.112536,0.204232 2.679576,2.386597 2.431368,2.306508 3.742264,1.182791 3.996373,-3.416496 7.294415,-7.552838 10.61956,-11.602474 1.586685,-2.620492 1.146779,-3.02238 -3.079903,-4.59764 -0.561269,-0.209182 -1.180378,0.21609 -1.755733,0.382662 -1.501052,0.43457 -3.824377,1.359219 -5.239009,1.898884 -2.020358,0.804987 -2.833881,1.091568 -4.72231,1.972003 -0.442751,0.206423 -0.902597,0.388361 -1.308113,0.66075 -0.123108,0.08269 -0.363691,0.300471 -0.236548,0.376816 4.227592,2.538521 3.083854,2.364164 6.303711,1.716374 1.940124,-0.365615 3.834932,-0.947666 5.785961,-1.2597 0.348623,-0.05576 1.336043,0.100711 1.053351,-0.110794 -3.060191,-2.289583 -2.578062,-2.308553 -4.146864,-1.052336 -0.204036,0.08312 -3.424256,2.25102 -2.958317,2.608403 3.360952,2.57791 2.503858,2.457892 4.881859,2.138902 1.182663,-0.067 2.329172,-0.485552 3.502734,-0.59795 1.129173,-0.108146 5.371428,2.83437 -2.560302,-1.70202 -1.506667,1.415659 -2.827652,0.392658 2.703679,2.881138 0.272079,0.122404 0.571604,-0.171198 0.857404,-0.256799 3.267797,-1.006401 6.44757,-2.278219 9.838941,-2.798077 2.050703,-0.31672 4.098615,-0.597702 6.136079,-0.982366 1.273741,-0.309058 2.49355,-0.821013 3.767577,-1.123913 0,0 -3.270248,-2.249726 -3.270248,-2.249726 v 0 c -1.243713,0.358032 -2.452346,0.838295 -3.717763,1.124056 -2.027153,0.379254 -4.067559,0.659842 -6.103012,0.994484 -3.390405,0.592849 -6.562515,1.935535 -9.886529,2.798823 -0.278654,0.04878 -1.027707,-0.06164 -0.835964,0.146355 2.12226,2.302121 2.687624,3.03553 4.054671,1.281543 -1.110927,-0.786529 -2.196865,-1.609603 -3.332784,-2.359591 -0.543783,-0.359029 -3.569838,0.691592 -4.338791,0.563414 -0.350203,-5.29e-4 -1.287026,-0.259802 -1.050608,-0.0013 0.785291,0.858154 1.873814,1.384252 2.868253,1.98774 0.07882,0.04783 -0.09747,-0.198808 -0.04305,-0.273233 0.178086,-0.243517 0.443929,-0.409411 0.67981,-0.597498 0.672089,-0.535905 1.420103,-1.025596 2.127435,-1.508884 1.801492,-1.588899 1.823683,-1.064895 -2.374193,-3.28337 -0.287081,-0.151715 -4.319109,0.903975 -4.629367,0.97273 -0.718894,0.159308 -1.441339,0.302156 -2.162006,0.453236 -2.81283,0.429429 -2.707008,-0.113567 0.309732,2.445832 0.05152,0.04371 -0.0275,-0.162348 0.0281,-0.200721 0.388075,-0.267806 0.819095,-0.468608 1.242497,-0.676105 1.829906,-0.896795 2.688815,-1.192385 4.662347,-1.982907 1.325041,-0.487442 3.824936,-1.469451 5.273678,-1.778463 0.54421,-0.11608 1.912646,0.362993 1.663914,-0.134776 -3.483504,-6.971251 -2.44153,-1.651131 -2.648236,-1.034672 -0.14288,0.426117 -0.420962,0.7942 -0.631444,1.1913 -3.248758,4.1099 -6.545323,8.259352 -10.676966,11.528189 -1.66133,1.916171 -1.745975,1.340962 2.814899,3.096925 0.38926,0.149867 4.004762,-1.001078 4.407813,-1.117466 0.65668,-0.189629 1.313677,-0.37815 1.970518,-0.567224 0.607359,-0.172958 1.211636,-0.35714 1.822083,-0.518872 0.409712,-0.10855 1.478433,0.05702 1.237615,-0.291769 -1.945849,-2.818241 -2.240365,-2.430775 -4.108344,-2.018017 -2.659817,0.69023 -3.079007,-0.184438 0.927375,2.73109 0.03789,0.02757 0.08686,-0.03521 0.130288,-0.05282 1.78184,-0.698616 3.564094,-1.373372 5.404163,-1.918573 1.09829,-0.392586 2.198669,-0.779375 3.294917,-1.177636 0.452048,-0.164227 0.903237,-0.330875 1.352939,-0.50142 0.29736,-0.112774 1.076004,-0.09189 0.888148,-0.348501 -2.096596,-2.863954 -1.832766,-2.934126 -3.058711,-2.263656 -3.41775,1.281234 -6.941163,2.272643 -10.40865,3.405714 -0.860406,0.263509 -3.159064,0.979963 -4.077324,1.214765 -0.409091,0.104606 -1.459227,-0.108672 -1.241242,0.25296 2.199097,3.648266 1.857652,2.593539 3.134304,1.881656 1.950715,-0.826529 4.029451,-1.289092 6.021226,-2.004623 1.013076,-0.323808 1.472001,-0.461873 2.462122,-0.811028 0.299178,-0.1055 1.080749,-0.07429 0.892731,-0.329797 -2.12729,-2.890923 -1.963594,-2.73843 -3.692853,-2.198786 -3.085698,0.894077 -6.138979,1.926603 -9.30284,2.523112 -1.432242,0.307665 -2.477775,0.538292 -3.906623,0.822195 -0.38431,0.07636 -1.376484,-0.107468 -1.155446,0.216056 1.857669,2.71898 1.878809,2.628813 3.324775,2.108962 3.026858,-1.009266 6.087618,-1.930932 9.193406,-2.665444 2.626751,-0.642509 5.251638,-1.303943 7.863805,-1.998046 -3.650781,-2.792569 -2.590924,-2.815653 -6.285198,-1.590916 -2.500074,0.819248 -5.053676,1.457952 -7.512105,2.399469 -2.502043,0.829916 -4.984287,1.522019 -7.589597,1.957348 -0.695902,0.116279 -2.071055,-0.398714 -2.094349,0.306451 -0.03127,0.946621 1.345441,1.333442 2.01816,2.00016 -0.119698,0.0182 -0.325229,0.170842 -0.359098,0.0546 -0.04115,-0.141232 0.559647,-0.409964 1.137116,-0.66923 1.429609,-0.641847 2.902669,-1.183327 4.415887,-1.594458 4.436415,-1.20891 8.890588,-2.333379 13.380675,-3.325717 z" /><path
       style="fill:#000000;fill-opacity:1;stroke:none;stroke-width:1.349"
       id="path8"
       d="m 11.388409,72.279255 c -2.2235129,1.195329 -4.0292915,3.230054 -6.4895461,3.966453 1.188048,0.527487 2.2905482,1.32234 3.5641386,1.58246 0.2984314,0.06095 0.3432386,-0.503542 0.5262324,-0.747035 0.2809081,-0.37378 0.6816857,-0.786096 0.8999458,-1.223418 0.041582,-0.08331 0.1483333,-0.224602 0.067622,-0.271026 C 8.731093,74.881704 7.4210113,74.334803 6.1531174,73.708862 5.5847712,74.018512 5.072313,74.422356 4.5560791,74.810598 3.0217234,75.96453 5.0957418,75.534601 7.967987,76.748557 8.5880539,76.153771 9.1823345,75.533744 9.7915906,74.928993 9.8910976,74.830223 10.227076,74.724849 10.107625,74.651443 6.447289,72.402059 7.1186296,71.851762 6.0561555,73.752455 4.9692234,75.42419 3.9025901,77.091962 3.3537569,79.022981 c -0.1804061,1.132491 -0.261612,2.261 -0.5353367,3.378541 -0.1817423,0.616519 -0.3015245,1.24773 -0.3581241,1.887313 -0.045651,0.728094 -0.02241,1.458997 -0.022781,2.188181 0.2540926,1.748568 2.2267095,1.753015 3.8861841,2.655512 0,0 -3.1837285,-2.390656 -3.1837285,-2.390656 v 0 c 7.7509633,4.661114 3.243482,2.487287 2.8295255,1.534242 -0.00212,-0.717799 -0.00357,-1.436114 0.023204,-2.1535 0.039365,-0.622673 0.1403561,-1.238496 0.3123009,-1.839322 0.2658798,-1.118346 0.3980842,-2.234099 0.5194909,-3.374311 0.4945512,-1.913207 1.5215023,-3.569372 2.6299768,-5.189762 1.1528952,-1.845593 1.0065012,-1.011044 -2.7237161,-3.149528 -0.00582,-0.0033 -0.9945608,1.023731 -1.5028518,1.508969 -0.2166064,0.206782 -0.430149,0.41675 -0.6452235,0.625125 4.2518753,3.490405 1.7972537,2.751204 4.8613298,1.222479 C 8.4337941,75.20511 7.4352619,74.467309 6.4133697,73.7628 c -0.033359,-0.02299 0.065691,0.07179 0.051924,0.109897 -0.059246,0.163984 -0.1557364,0.313553 -0.2563574,0.455946 -0.025109,0.03552 -1.2309448,1.529387 -1.2019042,1.56758 0.82178,1.080831 2.1118221,1.707126 3.1677319,2.56069 2.373646,-0.999223 4.254876,-2.85923 6.539797,-4.02558 z" /><rect
       style="fill:#ffffff;fill-opacity:1;stroke:none;stroke-width:1.44966"
       id="rect8"
       width="62.348629"
       height="4.9915967"
       x="5.1656313"
       y="300.74658" /></g></svg>
