<?xml version="1.0" encoding="UTF-8" standalone="no"?>
<!-- Created with Inkscape (http://www.inkscape.org/) -->

<svg
   width="175mm"
   height="175mm"
   viewBox="0 0 175 175"
   version="1.1"
   id="svg19184"
   inkscape:version="1.3 (0e150ed, 2023-07-21)"
   sodipodi:docname="Samples.svg"
   inkscape:export-filename="Samples.png"
   inkscape:export-xdpi="96"
   inkscape:export-ydpi="96"
   xml:space="preserve"
   xmlns:inkscape="http://www.inkscape.org/namespaces/inkscape"
   xmlns:sodipodi="http://sodipodi.sourceforge.net/DTD/sodipodi-0.dtd"
   xmlns:xlink="http://www.w3.org/1999/xlink"
   xmlns="http://www.w3.org/2000/svg"
   xmlns:svg="http://www.w3.org/2000/svg"><sodipodi:namedview
     id="namedview19186"
     pagecolor="#ffffff"
     bordercolor="#666666"
     borderopacity="1.0"
     inkscape:pageshadow="2"
     inkscape:pageopacity="0.0"
     inkscape:pagecheckerboard="0"
     inkscape:document-units="mm"
     showgrid="false"
     inkscape:zoom="0.58961278"
     inkscape:cx="521.52872"
     inkscape:cy="351.07787"
     inkscape:window-width="1432"
     inkscape:window-height="791"
     inkscape:window-x="0"
     inkscape:window-y="25"
     inkscape:window-maximized="0"
     inkscape:current-layer="layer1"
     inkscape:showpageshadow="2"
     inkscape:deskcolor="#d1d1d1"
     inkscape:export-bgcolor="#ffffffff" /><defs
     id="defs19181"><clipPath
       clipPathUnits="userSpaceOnUse"
       id="clipPath19507"><rect
         style="fill:#ffffff;fill-opacity:0.8;stroke-width:0.395592;stroke-linecap:round"
         id="rect19509"
         width="175.70943"
         height="39.937931"
         x="10.862995"
         y="67.292412" /></clipPath><clipPath
       clipPathUnits="userSpaceOnUse"
       id="clipPath19615"><rect
         style="fill:#ffffff;fill-opacity:0.8;stroke-width:0.424;stroke-linecap:round"
         id="rect19617"
         width="175.70943"
         height="39.489193"
         x="14.038005"
         y="19.215431" /></clipPath><clipPath
       clipPathUnits="userSpaceOnUse"
       id="clipPath19507-1"><rect
         style="fill:#ffffff;fill-opacity:0.8;stroke-width:0.395592;stroke-linecap:round"
         id="rect19509-2"
         width="175.70943"
         height="39.937931"
         x="10.862995"
         y="67.292412" /></clipPath><clipPath
       clipPathUnits="userSpaceOnUse"
       id="clipPath19507-0"><rect
         style="fill:#ffffff;fill-opacity:0.8;stroke-width:0.395592;stroke-linecap:round"
         id="rect19509-9"
         width="175.70943"
         height="39.937931"
         x="10.862995"
         y="67.292412" /></clipPath><clipPath
       clipPathUnits="userSpaceOnUse"
       id="clipPath19507-1-6"><rect
         style="fill:#ffffff;fill-opacity:0.8;stroke-width:0.395592;stroke-linecap:round"
         id="rect19509-2-0"
         width="175.70943"
         height="39.937931"
         x="10.862995"
         y="67.292412" /></clipPath><clipPath
       clipPathUnits="userSpaceOnUse"
       id="clipPath19951"><rect
         style="fill:#ffffff;fill-opacity:0.8;stroke-width:0.403781;stroke-linecap:round"
         id="rect19953"
         width="39.338825"
         height="41.175838"
         x="14.901663"
         y="67.292412" /></clipPath><clipPath
       clipPathUnits="userSpaceOnUse"
       id="clipPath19955"><rect
         style="fill:#999999;fill-opacity:0.8;stroke-width:0.403781;stroke-linecap:round"
         id="rect19957"
         width="39.338825"
         height="41.175838"
         x="57.887188"
         y="66.142784" /></clipPath><clipPath
       clipPathUnits="userSpaceOnUse"
       id="clipPath19959"><rect
         style="fill:#999999;fill-opacity:0.8;stroke-width:0.403781;stroke-linecap:round"
         id="rect19961"
         width="39.338825"
         height="41.175838"
         x="100.79108"
         y="66.867073" /></clipPath><clipPath
       clipPathUnits="userSpaceOnUse"
       id="clipPath19963"><rect
         style="fill:#999999;fill-opacity:0.8;stroke-width:0.403781;stroke-linecap:round"
         id="rect19965"
         width="39.338825"
         height="41.175838"
         x="144.05859"
         y="66.763237" /></clipPath><g
       id="g1457"><symbol
         overflow="visible"
         id="symbol5207"><path
           style="stroke:none"
           d=""
           id="path8181" /></symbol><symbol
         overflow="visible"
         id="symbol8203"><path
           style="stroke:none"
           d="M 3.453125,-2.453125 4.609375,-3.75 C 4.75,-3.890625 4.8125,-3.953125 5.625,-3.953125 v -0.46875 c -0.34375,0.015625 -0.859375,0.03125 -0.90625,0.03125 -0.25,0 -0.75,-0.03125 -1.03125,-0.03125 v 0.46875 c 0.140625,0 0.265625,0.015625 0.375,0.078125 -0.03125,0.0625 -0.03125,0.09375 -0.078125,0.125 L 3.15625,-2.8125 2.171875,-3.953125 h 0.40625 v -0.46875 c -0.265625,0 -0.890625,0.03125 -1.21875,0.03125 -0.3125,0 -0.765625,-0.03125 -1.09375,-0.03125 v 0.46875 h 0.71875 L 2.53125,-2.125 1.21875,-0.65625 c -0.15625,0.1875 -0.515625,0.1875 -1,0.1875 V 0 c 0.34375,-0.015625 0.875,-0.03125 0.921875,-0.03125 0.25,0 0.828125,0.015625 1.015625,0.03125 v -0.46875 c -0.171875,0 -0.359375,-0.046875 -0.359375,-0.109375 0,-0.015625 0,-0.015625 0.0625,-0.09375 l 0.96875,-1.09375 1.09375,1.296875 H 3.53125 V 0 c 0.265625,-0.015625 0.875,-0.03125 1.203125,-0.03125 0.3125,0 0.765625,0.015625 1.09375,0.03125 V -0.46875 H 5.125 Z m 0,0"
           id="path5994" /></symbol></g><g
       id="g3826"><symbol
         overflow="visible"
         id="symbol9710"><path
           style="stroke:none"
           d=""
           id="path5537" /></symbol><symbol
         overflow="visible"
         id="symbol4837"><path
           style="stroke:none"
           d="m 5.046875,-3.75 c 0.0625,-0.140625 0.09375,-0.203125 0.734375,-0.203125 v -0.46875 C 5.546875,-4.40625 5.25,-4.390625 5,-4.390625 c -0.25,0 -0.703125,-0.03125 -0.90625,-0.03125 v 0.46875 c 0.015625,0 0.46875,0 0.46875,0.109375 0,0.015625 -0.046875,0.109375 -0.0625,0.125 L 3.359375,-1.265625 2.09375,-3.953125 H 2.625 v -0.46875 c -0.328125,0.015625 -1.21875,0.03125 -1.234375,0.03125 -0.28125,0 -0.71875,-0.03125 -1.125,-0.03125 v 0.46875 h 0.625 L 2.765625,0 2.53125,0.484375 C 2.3125,0.953125 2,1.640625 1.28125,1.640625 1.140625,1.640625 1.125,1.625 1.046875,1.59375 1.140625,1.5625 1.359375,1.421875 1.359375,1.0625 1.359375,0.734375 1.125,0.5 0.78125,0.5 0.515625,0.5 0.21875,0.6875 0.21875,1.078125 0.21875,1.578125 0.6875,2 1.28125,2 2.046875,2 2.625,1.375 2.90625,0.8125 Z m 0,0"
           id="path5868" /></symbol></g><g
       id="g4819"><symbol
         overflow="visible"
         id="symbol3533"><path
           style="stroke:none"
           d=""
           id="path2614" /></symbol><symbol
         overflow="visible"
         id="symbol8020"><path
           style="stroke:none"
           d="m 2.859375,-6.921875 -1.5625,1.265625 0.28125,0.375 1.28125,-0.8125 1.28125,0.8125 0.28125,-0.375 z m 0,0"
           id="path6324" /></symbol><symbol
         overflow="visible"
         id="symbol1922"><path
           style="stroke:none"
           d="m 5.046875,-3.75 c 0.0625,-0.140625 0.09375,-0.203125 0.734375,-0.203125 v -0.46875 C 5.546875,-4.40625 5.25,-4.390625 5,-4.390625 c -0.25,0 -0.703125,-0.03125 -0.90625,-0.03125 v 0.46875 c 0.015625,0 0.46875,0 0.46875,0.109375 0,0.015625 -0.046875,0.109375 -0.0625,0.125 L 3.359375,-1.265625 2.09375,-3.953125 H 2.625 v -0.46875 c -0.328125,0.015625 -1.21875,0.03125 -1.234375,0.03125 -0.28125,0 -0.71875,-0.03125 -1.125,-0.03125 v 0.46875 h 0.625 L 2.765625,0 2.53125,0.484375 C 2.3125,0.953125 2,1.640625 1.28125,1.640625 1.140625,1.640625 1.125,1.625 1.046875,1.59375 1.140625,1.5625 1.359375,1.421875 1.359375,1.0625 1.359375,0.734375 1.125,0.5 0.78125,0.5 0.515625,0.5 0.21875,0.6875 0.21875,1.078125 0.21875,1.578125 0.6875,2 1.28125,2 2.046875,2 2.625,1.375 2.90625,0.8125 Z m 0,0"
           id="path232" /></symbol></g><g
       id="g8122"><symbol
         overflow="visible"
         id="symbol3433"><path
           style="stroke:none"
           d=""
           id="path6893" /></symbol><symbol
         overflow="visible"
         id="symbol4615"><path
           style="stroke:none"
           d="M 4.46875,-4 C 4.5625,-4.109375 4.578125,-4.125 4.578125,-4.21875 4.578125,-4.421875 4.4375,-4.421875 4.25,-4.421875 H 0.59375 L 0.484375,-2.6875 h 0.46875 C 1,-3.703125 1.3125,-4.0625 2.34375,-4.0625 H 3.1875 l -2.78125,3.625 C 0.3125,-0.328125 0.3125,-0.3125 0.3125,-0.21875 0.3125,0 0.453125,0 0.640625,0 h 3.78125 l 0.1875,-2.015625 H 4.140625 C 4.046875,-1 3.890625,-0.40625 2.578125,-0.40625 H 1.71875 Z m 0,0"
           id="path9046" /></symbol></g></defs><g
     inkscape:label="Layer 1"
     inkscape:groupmode="layer"
     id="layer1"><g
       inkscape:label=""
       transform="matrix(0.75636971,0,0,0.68872747,-39.72926,-50.100296)"
       id="g20085"><g
         id="g2574"><g
           style="fill:#000000;fill-opacity:1"
           id="g422"><use
             xlink:href="#symbol8203"
             x="91.925003"
             y="81.962997"
             id="use7306"
             width="100%"
             height="100%" /></g></g></g><g
       inkscape:label=""
       transform="matrix(0.75636971,0,0,0.68872747,-3.2651221,-50.239977)"
       id="g20331"><g
         id="g5706"><g
           style="fill:#000000;fill-opacity:1"
           id="g1633"><use
             xlink:href="#symbol8020"
             x="92.164001"
             y="81.962997"
             id="use1173"
             width="100%"
             height="100%" /></g><g
           style="fill:#000000;fill-opacity:1"
           id="g6485"><use
             xlink:href="#symbol1922"
             x="91.924896"
             y="81.962997"
             id="use3205"
             width="100%"
             height="100%" /></g></g></g><rect
       style="opacity:1;fill:#ffffff;fill-opacity:1;stroke-width:0.741308;stroke-linecap:round"
       id="rect19425"
       width="22.464424"
       height="8.1856556"
       x="128.11552"
       y="166.6268" /></g></svg>
